<?xml version="1.0" encoding="utf-8" standalone="no"?><!DOCTYPE svg PUBLIC "-//W3C//DTD SVG 1.1//EN" "http://www.w3.org/Graphics/SVG/1.1/DTD/svg11.dtd">
<svg preserveAspectRatio="xMinYMin meet" width="100%" height="100%" viewBox="100 50 850 850"  version="1.1" xmlns="http://www.w3.org/2000/svg" xmlns:xlink="http://www.w3.org/1999/xlink">
  <script xlink:href="/SVGPan.js"/>
  <desc>Matlab Figure Converted by PLOT2SVG written by Juerg Schwizer</desc>
  <g id="viewport">
  <rect x="0" y="0" width="1022.813" height="993.750" fill="#ffffff" stroke="none" />
  <g id ="ID000000">
  <clipPath id="ID000001">
    <rect x="132.966" y="83.145" width="792.680" height="792.680"/>
  </clipPath>
    <g>
<g id="ID000002" clip-path="url(#ID000001)" >
      <polyline fill="none" stroke="#0000ff" stroke-width="0.5pt" stroke-dasharray="none" points="132.966,875.824 132.966,875.367 132.966,874.914 132.966,874.466 132.966,874.023 132.966,873.584 132.966,873.150 132.966,872.721 132.966,872.296 132.966,871.876 132.966,871.460 132.966,871.049 132.966,870.643 132.966,870.242 132.966,869.845 132.966,869.452 132.966,869.065 132.966,868.682 132.966,868.303 132.966,867.930 132.966,867.561 132.966,867.196 132.966,866.836 132.966,866.481 132.966,866.131 132.966,865.785 132.966,865.444 132.966,865.107 132.966,864.775 132.966,864.448 132.966,864.125 132.966,863.807 132.966,863.494 132.966,863.185 132.966,862.881 132.966,862.581 132.966,862.287 132.966,861.996 132.966,861.711 132.966,861.430 132.966,861.154 132.966,860.882 132.966,860.615 132.966,860.353 132.966,860.095 132.966,859.842 132.966,859.594 132.966,859.350 132.966,859.111 132.966,858.877 132.966,858.647 132.966,858.422 132.966,858.201 132.966,857.985 132.966,857.774 132.966,857.568 132.966,857.366 132.966,857.168 132.966,856.976 132.966,856.788 132.966,856.604 132.966,856.425 132.966,856.251 132.966,856.082 132.966,855.917 132.966,855.757 132.966,855.601 132.966,855.451 132.966,855.304 132.966,855.163 132.966,855.026 132.966,854.893 132.966,854.766 132.966,854.643 132.966,854.524 132.966,854.411 132.966,854.302 132.966,854.197 132.966,854.097 132.966,854.002 132.966,853.912 132.966,853.826 132.966,853.744 132.966,853.668 132.966,853.596 132.966,853.529 132.966,853.466 132.966,853.408 132.966,853.354 132.966,853.306 132.966,853.262 132.966,853.222 132.966,853.187 132.966,853.157 132.966,853.132 132.966,853.111 132.966,853.094 132.966,853.083 132.966,853.076 132.966,853.074 "/>
<g>
</g>
</g>
<g id="ID000003" clip-path="url(#ID000001)" >
<g>
<circle cx="132.966" cy="875.824" r="3.000" fill="none" stroke="#0000ff" stroke-width="0.5pt" />
</g>
</g>
<g id="ID000004" clip-path="url(#ID000001)" >
<g>
<circle cx="132.966" cy="853.074" r="3.000" fill="none" stroke="#0000ff" stroke-width="0.5pt" />
</g>
</g>
<g id="ID000005" clip-path="url(#ID000001)" >
<g>
<circle cx="132.966" cy="853.074" r="1.000" fill="#000000" stroke="none" stroke-width="0.5pt" />
</g>
</g>
<g id="ID000006" clip-path="url(#ID000001)" >
      <polyline fill="none" stroke="#0000ff" stroke-width="0.5pt" stroke-dasharray="none" points="132.966,853.074 134.288,853.032 135.600,852.987 136.903,852.937 138.197,852.883 139.481,852.824 140.755,852.762 142.020,852.695 143.275,852.624 144.521,852.549 145.757,852.470 146.984,852.386 148.201,852.298 149.409,852.206 150.607,852.110 151.795,852.010 152.974,851.905 154.143,851.796 155.303,851.683 156.454,851.566 157.594,851.444 158.726,851.319 159.847,851.189 160.959,851.055 162.062,850.916 163.155,850.774 164.238,850.627 165.312,850.476 166.376,850.321 167.431,850.161 168.477,849.998 169.512,849.830 170.538,849.658 171.555,849.481 172.562,849.301 173.560,849.116 174.548,848.927 175.526,848.734 176.495,848.537 177.454,848.335 178.404,848.129 179.344,847.919 180.275,847.705 181.196,847.487 182.108,847.264 183.010,847.037 183.902,846.806 184.785,846.571 185.659,846.331 186.523,846.087 187.377,845.840 188.222,845.587 189.057,845.331 189.883,845.070 190.699,844.806 191.505,844.537 192.302,844.263 193.090,843.986 193.868,843.704 194.636,843.418 195.395,843.128 196.144,842.834 196.884,842.535 197.614,842.233 198.335,841.926 199.046,841.615 199.748,841.299 200.440,840.980 201.122,840.656 201.795,840.328 202.458,839.995 203.112,839.659 203.757,839.318 204.391,838.973 205.016,838.624 205.632,838.271 206.238,837.913 206.835,837.552 207.422,837.186 207.999,836.816 208.567,836.441 209.125,836.063 209.674,835.680 210.214,835.293 210.743,834.901 211.263,834.506 211.774,834.106 212.275,833.702 212.767,833.294 213.249,832.882 213.721,832.465 214.184,832.045 214.637,831.620 215.081,831.191 215.515,830.757 215.940,830.319 216.355,829.878 216.761,829.432 217.157,828.981 217.543,828.527 "/>
<g>
</g>
</g>
<g id="ID000007" clip-path="url(#ID000001)" >
<g>
<circle cx="132.966" cy="853.074" r="3.000" fill="none" stroke="#0000ff" stroke-width="0.5pt" />
</g>
</g>
<g id="ID000008" clip-path="url(#ID000001)" >
<g>
<circle cx="217.543" cy="828.527" r="3.000" fill="none" stroke="#0000ff" stroke-width="0.5pt" />
</g>
</g>
<g id="ID000009" clip-path="url(#ID000001)" >
<g>
<circle cx="198.647" cy="851.128" r="1.000" fill="#000000" stroke="none" stroke-width="0.5pt" />
</g>
</g>
<g id="ID000010" clip-path="url(#ID000001)" >
      <polyline fill="none" stroke="#0000ff" stroke-width="0.5pt" stroke-dasharray="none" points="217.543,828.527 217.923,828.065 218.298,827.593 218.670,827.110 219.037,826.617 219.400,826.113 219.759,825.599 220.114,825.075 220.465,824.540 220.812,823.995 221.154,823.439 221.492,822.872 221.827,822.296 222.157,821.709 222.483,821.111 222.805,820.503 223.122,819.884 223.436,819.256 223.745,818.616 224.051,817.966 224.352,817.306 224.649,816.635 224.942,815.954 225.231,815.263 225.516,814.560 225.796,813.848 226.072,813.125 226.345,812.392 226.613,811.648 226.877,810.894 227.137,810.129 227.393,809.354 227.644,808.568 227.892,807.772 228.135,806.965 228.374,806.148 228.610,805.321 228.841,804.483 229.067,803.635 229.290,802.776 229.509,801.907 229.723,801.027 229.934,800.137 230.140,799.237 230.342,798.326 230.540,797.404 230.734,796.472 230.923,795.530 231.109,794.577 231.290,793.614 231.468,792.641 231.641,791.656 231.810,790.662 231.975,789.657 232.136,788.642 232.292,787.616 232.445,786.579 232.593,785.533 232.738,784.475 232.878,783.408 233.014,782.330 233.146,781.241 233.273,780.142 233.397,779.033 233.517,777.913 233.632,776.782 233.743,775.642 233.850,774.490 233.953,773.329 234.052,772.157 234.147,770.974 234.237,769.781 234.324,768.578 234.406,767.364 234.484,766.139 234.558,764.905 234.628,763.659 234.694,762.404 234.756,761.138 234.813,759.861 234.867,758.574 234.916,757.277 234.961,755.969 235.002,754.650 235.039,753.321 235.072,751.982 235.101,750.633 235.125,749.272 235.145,747.902 235.162,746.521 235.174,745.129 235.182,743.727 235.186,742.315 235.185,740.892 235.181,739.459 235.173,738.015 235.160,736.561 235.143,735.097 235.122,733.622 235.097,732.136 "/>
<g>
</g>
</g>
<g id="ID000011" clip-path="url(#ID000001)" >
<g>
<circle cx="217.543" cy="828.527" r="3.000" fill="none" stroke="#0000ff" stroke-width="0.5pt" />
</g>
</g>
<g id="ID000012" clip-path="url(#ID000001)" >
<g>
<circle cx="235.097" cy="732.136" r="3.000" fill="none" stroke="#0000ff" stroke-width="0.5pt" />
</g>
</g>
<g id="ID000013" clip-path="url(#ID000001)" >
<g>
<circle cx="236.439" cy="805.926" r="1.000" fill="#000000" stroke="none" stroke-width="0.5pt" />
</g>
</g>
<g id="ID000014" clip-path="url(#ID000001)" >
      <polyline fill="none" stroke="#0000ff" stroke-width="0.5pt" stroke-dasharray="none" points="235.097,732.136 235.097,721.715 235.097,711.399 235.097,701.189 235.097,691.086 235.097,681.087 235.097,671.195 235.097,661.409 235.097,651.728 235.097,642.153 235.097,632.684 235.097,623.320 235.097,614.063 235.097,604.911 235.097,595.865 235.097,586.925 235.097,578.091 235.097,569.362 235.097,560.739 235.097,552.223 235.097,543.811 235.097,535.506 235.097,527.307 235.097,519.213 235.097,511.225 235.097,503.343 235.097,495.566 235.097,487.896 235.097,480.331 235.097,472.872 235.097,465.519 235.097,458.272 235.097,451.130 235.097,444.095 235.097,437.165 235.097,430.340 235.097,423.622 235.097,417.010 235.097,410.503 235.097,404.102 235.097,397.807 235.097,391.618 235.097,385.534 235.097,379.556 235.097,373.684 235.097,367.918 235.097,362.258 235.097,356.703 235.097,351.255 235.097,345.912 235.097,340.675 235.097,335.543 235.097,330.518 235.097,325.598 235.097,320.784 235.097,316.076 235.097,311.474 235.097,306.977 235.097,302.586 235.097,298.302 235.097,294.122 235.097,290.049 235.097,286.082 235.097,282.220 235.097,278.464 235.097,274.814 235.097,271.270 235.097,267.831 235.097,264.498 235.097,261.271 235.097,258.150 235.097,255.135 235.097,252.226 235.097,249.422 235.097,246.724 235.097,244.132 235.097,241.645 235.097,239.265 235.097,236.990 235.097,234.821 235.097,232.758 235.097,230.801 235.097,228.949 235.097,227.204 235.097,225.564 235.097,224.030 235.097,222.601 235.097,221.279 235.097,220.062 235.097,218.951 235.097,217.946 235.097,217.047 235.097,216.253 235.097,215.566 235.097,214.984 235.097,214.508 235.097,214.137 235.097,213.873 235.097,213.714 235.097,213.661 "/>
<g>
</g>
</g>
<g id="ID000015" clip-path="url(#ID000001)" >
<g>
<circle cx="235.097" cy="732.136" r="3.000" fill="none" stroke="#0000ff" stroke-width="0.5pt" />
</g>
</g>
<g id="ID000016" clip-path="url(#ID000001)" >
<g>
<circle cx="235.097" cy="213.661" r="3.000" fill="none" stroke="#0000ff" stroke-width="0.5pt" />
</g>
</g>
<g id="ID000017" clip-path="url(#ID000001)" >
<g>
<circle cx="235.097" cy="213.661" r="1.000" fill="#000000" stroke="none" stroke-width="0.5pt" />
</g>
</g>
<g id="ID000018" clip-path="url(#ID000001)" >
      <polyline fill="none" stroke="#0000ff" stroke-width="0.5pt" stroke-dasharray="none" points="235.097,213.661 235.120,212.369 235.139,211.085 235.153,209.810 235.163,208.544 235.170,207.288 235.171,206.040 235.169,204.801 235.163,203.571 235.152,202.350 235.138,201.138 235.119,199.936 235.096,198.742 235.068,197.557 235.037,196.381 235.001,195.214 234.961,194.056 234.917,192.907 234.869,191.767 234.817,190.636 234.761,189.514 234.700,188.400 234.635,187.296 234.566,186.201 234.493,185.115 234.415,184.038 234.334,182.970 234.248,181.910 234.158,180.860 234.064,179.819 233.966,178.787 233.864,177.763 233.757,176.749 233.646,175.744 233.531,174.747 233.412,173.760 233.289,172.781 233.162,171.812 233.030,170.852 232.894,169.900 232.754,168.958 232.610,168.024 232.462,167.100 232.309,166.184 232.153,165.277 231.992,164.380 231.827,163.491 231.658,162.612 231.484,161.741 231.307,160.879 231.125,160.027 230.939,159.183 230.749,158.348 230.555,157.522 230.356,156.706 230.154,155.898 229.947,155.099 229.736,154.309 229.521,153.528 229.302,152.756 229.078,151.993 228.851,151.240 228.619,150.495 228.383,149.759 228.143,149.032 227.899,148.314 227.650,147.605 227.397,146.905 227.141,146.214 226.880,145.531 226.614,144.858 226.345,144.194 226.071,143.539 225.794,142.893 225.512,142.256 225.226,141.628 224.936,141.008 224.641,140.398 224.343,139.797 224.040,139.205 223.733,138.621 223.422,138.047 223.106,137.482 222.787,136.925 222.463,136.378 222.136,135.839 221.804,135.310 221.467,134.789 221.127,134.278 220.783,133.776 220.434,133.282 220.081,132.797 219.724,132.322 219.363,131.855 218.998,131.398 218.628,130.949 218.254,130.510 217.876,130.079 217.494,129.657 217.108,129.244 "/>
<g>
</g>
</g>
<g id="ID000019" clip-path="url(#ID000001)" >
<g>
<circle cx="235.097" cy="213.661" r="3.000" fill="none" stroke="#0000ff" stroke-width="0.5pt" />
</g>
</g>
<g id="ID000020" clip-path="url(#ID000001)" >
<g>
<circle cx="217.108" cy="129.244" r="3.000" fill="none" stroke="#0000ff" stroke-width="0.5pt" />
</g>
</g>
<g id="ID000021" clip-path="url(#ID000001)" >
<g>
<circle cx="236.330" cy="149.451" r="1.000" fill="#000000" stroke="none" stroke-width="0.5pt" />
</g>
</g>
<g id="ID000022" clip-path="url(#ID000001)" >
      <polyline fill="none" stroke="#0000ff" stroke-width="0.5pt" stroke-dasharray="none" points="217.108,129.244 216.715,128.838 216.313,128.435 215.901,128.036 215.480,127.640 215.050,127.247 214.610,126.858 214.161,126.472 213.703,126.090 213.235,125.712 212.759,125.337 212.272,124.965 211.777,124.597 211.272,124.232 210.758,123.871 210.234,123.513 209.701,123.159 209.159,122.808 208.607,122.461 208.047,122.117 207.476,121.777 206.897,121.440 206.308,121.107 205.710,120.777 205.103,120.450 204.486,120.127 203.860,119.808 203.224,119.492 202.579,119.180 201.925,118.871 201.262,118.565 200.589,118.263 199.907,117.965 199.216,117.670 198.515,117.378 197.805,117.090 197.086,116.805 196.357,116.524 195.619,116.247 194.871,115.972 194.115,115.702 193.349,115.435 192.574,115.171 191.789,114.911 190.995,114.654 190.192,114.401 189.379,114.151 188.557,113.905 187.726,113.662 186.885,113.422 186.035,113.187 185.176,112.954 184.307,112.725 183.429,112.500 182.542,112.278 181.646,112.060 180.740,111.845 179.825,111.633 178.900,111.425 177.966,111.221 177.023,111.020 176.071,110.822 175.109,110.628 174.138,110.437 173.157,110.250 172.167,110.067 171.168,109.886 170.160,109.710 169.142,109.537 168.115,109.367 167.078,109.201 166.033,109.038 164.978,108.879 163.913,108.723 162.840,108.571 161.756,108.422 160.664,108.277 159.562,108.135 158.451,107.996 157.331,107.862 156.201,107.730 155.062,107.602 153.914,107.478 152.756,107.357 151.589,107.239 150.413,107.125 149.227,107.015 148.032,106.908 146.828,106.804 145.615,106.704 144.392,106.608 143.159,106.515 141.918,106.425 140.667,106.339 139.407,106.256 138.137,106.177 136.858,106.101 135.570,106.029 134.272,105.960 132.966,105.895 "/>
<g>
</g>
</g>
<g id="ID000023" clip-path="url(#ID000001)" >
<g>
<circle cx="217.108" cy="129.244" r="3.000" fill="none" stroke="#0000ff" stroke-width="0.5pt" />
</g>
</g>
<g id="ID000024" clip-path="url(#ID000001)" >
<g>
<circle cx="132.966" cy="105.895" r="3.000" fill="none" stroke="#0000ff" stroke-width="0.5pt" />
</g>
</g>
<g id="ID000025" clip-path="url(#ID000001)" >
<g>
<circle cx="197.886" cy="109.038" r="1.000" fill="#000000" stroke="none" stroke-width="0.5pt" />
</g>
</g>
<g id="ID000026" clip-path="url(#ID000001)" >
      <polyline fill="none" stroke="#0000ff" stroke-width="0.5pt" stroke-dasharray="none" points="132.966,105.895 132.966,105.438 132.966,104.985 132.966,104.537 132.966,104.094 132.966,103.655 132.966,103.221 132.966,102.792 132.966,102.367 132.966,101.947 132.966,101.531 132.966,101.120 132.966,100.714 132.966,100.313 132.966,99.916 132.966,99.523 132.966,99.136 132.966,98.753 132.966,98.374 132.966,98.001 132.966,97.631 132.966,97.267 132.966,96.907 132.966,96.552 132.966,96.202 132.966,95.856 132.966,95.515 132.966,95.178 132.966,94.846 132.966,94.519 132.966,94.196 132.966,93.878 132.966,93.565 132.966,93.256 132.966,92.952 132.966,92.652 132.966,92.358 132.966,92.067 132.966,91.782 132.966,91.501 132.966,91.225 132.966,90.953 132.966,90.686 132.966,90.424 132.966,90.166 132.966,89.913 132.966,89.665 132.966,89.421 132.966,89.182 132.966,88.948 132.966,88.718 132.966,88.493 132.966,88.272 132.966,88.056 132.966,87.845 132.966,87.638 132.966,87.437 132.966,87.239 132.966,87.047 132.966,86.859 132.966,86.675 132.966,86.496 132.966,86.322 132.966,86.153 132.966,85.988 132.966,85.828 132.966,85.672 132.966,85.521 132.966,85.375 132.966,85.234 132.966,85.097 132.966,84.964 132.966,84.837 132.966,84.714 132.966,84.595 132.966,84.482 132.966,84.372 132.966,84.268 132.966,84.168 132.966,84.073 132.966,83.983 132.966,83.897 132.966,83.815 132.966,83.739 132.966,83.667 132.966,83.599 132.966,83.537 132.966,83.479 132.966,83.425 132.966,83.377 132.966,83.333 132.966,83.293 132.966,83.258 132.966,83.228 132.966,83.203 132.966,83.182 132.966,83.165 132.966,83.154 132.966,83.147 132.966,83.145 "/>
<g>
</g>
</g>
<g id="ID000027" clip-path="url(#ID000001)" >
<g>
<circle cx="132.966" cy="105.895" r="3.000" fill="none" stroke="#0000ff" stroke-width="0.5pt" />
</g>
</g>
<g id="ID000028" clip-path="url(#ID000001)" >
<g>
<circle cx="132.966" cy="83.145" r="3.000" fill="none" stroke="#0000ff" stroke-width="0.5pt" />
</g>
</g>
<g id="ID000029" clip-path="url(#ID000001)" >
<g>
<circle cx="132.966" cy="83.145" r="1.000" fill="#000000" stroke="none" stroke-width="0.5pt" />
</g>
</g>
<g id="ID000030" clip-path="url(#ID000001)" >
      <polyline fill="none" stroke="#0000ff" stroke-width="0.5pt" stroke-dasharray="none" points="132.966,83.145 139.451,83.145 145.870,83.145 152.223,83.145 158.511,83.145 164.733,83.145 170.889,83.145 176.979,83.145 183.003,83.145 188.961,83.145 194.854,83.145 200.681,83.145 206.442,83.145 212.137,83.145 217.766,83.145 223.329,83.145 228.827,83.145 234.259,83.145 239.624,83.145 244.924,83.145 250.159,83.145 255.327,83.145 260.429,83.145 265.466,83.145 270.437,83.145 275.342,83.145 280.181,83.145 284.954,83.145 289.662,83.145 294.303,83.145 298.879,83.145 303.389,83.145 307.833,83.145 312.212,83.145 316.524,83.145 320.771,83.145 324.951,83.145 329.066,83.145 333.115,83.145 337.099,83.145 341.016,83.145 344.868,83.145 348.653,83.145 352.373,83.145 356.027,83.145 359.615,83.145 363.138,83.145 366.594,83.145 369.985,83.145 373.310,83.145 376.569,83.145 379.762,83.145 382.889,83.145 385.951,83.145 388.947,83.145 391.876,83.145 394.740,83.145 397.539,83.145 400.271,83.145 402.937,83.145 405.538,83.145 408.073,83.145 410.542,83.145 412.945,83.145 415.282,83.145 417.554,83.145 419.759,83.145 421.899,83.145 423.973,83.145 425.981,83.145 427.923,83.145 429.800,83.145 431.610,83.145 433.355,83.145 435.034,83.145 436.647,83.145 438.194,83.145 439.675,83.145 441.091,83.145 442.441,83.145 443.724,83.145 444.942,83.145 446.095,83.145 447.181,83.145 448.201,83.145 449.156,83.145 450.045,83.145 450.868,83.145 451.625,83.145 452.316,83.145 452.942,83.145 453.501,83.145 453.995,83.145 454.423,83.145 454.785,83.145 455.082,83.145 455.312,83.145 455.477,83.145 455.575,83.145 455.608,83.145 "/>
<g>
</g>
</g>
<g id="ID000031" clip-path="url(#ID000001)" >
<g>
<circle cx="132.966" cy="83.145" r="3.000" fill="none" stroke="#0000ff" stroke-width="0.5pt" />
</g>
</g>
<g id="ID000032" clip-path="url(#ID000001)" >
<g>
<circle cx="455.608" cy="83.145" r="3.000" fill="none" stroke="#0000ff" stroke-width="0.5pt" />
</g>
</g>
<g id="ID000033" clip-path="url(#ID000001)" >
<g>
<circle cx="455.608" cy="83.145" r="1.000" fill="#000000" stroke="none" stroke-width="0.5pt" />
</g>
</g>
<g id="ID000034" clip-path="url(#ID000001)" >
      <polyline fill="none" stroke="#0000ff" stroke-width="0.5pt" stroke-dasharray="none" points="455.608,83.145 455.608,83.602 455.608,84.054 455.608,84.502 455.608,84.946 455.608,85.385 455.608,85.819 455.608,86.248 455.608,86.673 455.608,87.093 455.608,87.508 455.608,87.919 455.608,88.326 455.608,88.727 455.608,89.124 455.608,89.516 455.608,89.904 455.608,90.287 455.608,90.665 455.608,91.039 455.608,91.408 455.608,91.773 455.608,92.132 455.608,92.488 455.608,92.838 455.608,93.184 455.608,93.525 455.608,93.862 455.608,94.194 455.608,94.521 455.608,94.844 455.608,95.162 455.608,95.475 455.608,95.784 455.608,96.088 455.608,96.387 455.608,96.682 455.608,96.972 455.608,97.258 455.608,97.539 455.608,97.815 455.608,98.086 455.608,98.353 455.608,98.616 455.608,98.873 455.608,99.126 455.608,99.375 455.608,99.618 455.608,99.858 455.608,100.092 455.608,100.322 455.608,100.547 455.608,100.768 455.608,100.983 455.608,101.195 455.608,101.401 455.608,101.603 455.608,101.800 455.608,101.993 455.608,102.181 455.608,102.365 455.608,102.543 455.608,102.717 455.608,102.887 455.608,103.052 455.608,103.212 455.608,103.367 455.608,103.518 455.608,103.664 455.608,103.806 455.608,103.943 455.608,104.075 455.608,104.203 455.608,104.326 455.608,104.444 455.608,104.558 455.608,104.667 455.608,104.772 455.608,104.871 455.608,104.967 455.608,105.057 455.608,105.143 455.608,105.224 455.608,105.301 455.608,105.373 455.608,105.440 455.608,105.503 455.608,105.561 455.608,105.614 455.608,105.663 455.608,105.707 455.608,105.747 455.608,105.781 455.608,105.812 455.608,105.837 455.608,105.858 455.608,105.874 455.608,105.886 455.608,105.893 455.608,105.895 "/>
<g>
</g>
</g>
<g id="ID000035" clip-path="url(#ID000001)" >
<g>
<circle cx="455.608" cy="83.145" r="3.000" fill="none" stroke="#0000ff" stroke-width="0.5pt" />
</g>
</g>
<g id="ID000036" clip-path="url(#ID000001)" >
<g>
<circle cx="455.608" cy="105.895" r="3.000" fill="none" stroke="#0000ff" stroke-width="0.5pt" />
</g>
</g>
<g id="ID000037" clip-path="url(#ID000001)" >
<g>
<circle cx="455.608" cy="105.895" r="1.000" fill="#000000" stroke="none" stroke-width="0.5pt" />
</g>
</g>
<g id="ID000038" clip-path="url(#ID000001)" >
      <polyline fill="none" stroke="#0000ff" stroke-width="0.5pt" stroke-dasharray="none" points="455.608,105.895 454.301,105.978 453.004,106.065 451.716,106.155 450.437,106.248 449.167,106.345 447.907,106.444 446.656,106.547 445.415,106.654 444.182,106.764 442.959,106.876 441.746,106.993 440.541,107.112 439.347,107.235 438.161,107.361 436.985,107.491 435.818,107.624 434.660,107.760 433.512,107.899 432.373,108.042 431.243,108.188 430.123,108.337 429.012,108.490 427.910,108.645 426.817,108.805 425.734,108.967 424.661,109.133 423.596,109.302 422.541,109.474 421.495,109.650 420.459,109.829 419.432,110.011 418.414,110.197 417.406,110.385 416.407,110.578 415.417,110.773 414.436,110.972 413.465,111.174 412.503,111.379 411.551,111.588 410.608,111.800 409.674,112.015 408.749,112.233 407.834,112.455 406.928,112.680 406.032,112.909 405.144,113.141 404.267,113.376 403.398,113.614 402.539,113.856 401.689,114.100 400.848,114.349 400.017,114.600 399.195,114.855 398.382,115.113 397.579,115.375 396.785,115.639 396.000,115.907 395.225,116.179 394.459,116.453 393.702,116.731 392.955,117.012 392.217,117.297 391.488,117.585 390.769,117.876 390.059,118.170 389.358,118.468 388.667,118.769 387.985,119.073 387.312,119.381 386.649,119.692 385.995,120.006 385.350,120.323 384.714,120.644 384.088,120.968 383.471,121.296 382.864,121.626 382.266,121.960 381.677,122.298 381.097,122.638 380.527,122.982 379.966,123.329 379.415,123.680 378.873,124.033 378.340,124.391 377.816,124.751 377.302,125.115 376.797,125.482 376.302,125.852 375.815,126.225 375.338,126.602 374.871,126.982 374.413,127.366 373.964,127.753 373.524,128.143 373.094,128.536 372.673,128.933 372.261,129.333 371.859,129.736 371.466,130.143 "/>
<g>
</g>
</g>
<g id="ID000039" clip-path="url(#ID000001)" >
<g>
<circle cx="455.608" cy="105.895" r="3.000" fill="none" stroke="#0000ff" stroke-width="0.5pt" />
</g>
</g>
<g id="ID000040" clip-path="url(#ID000001)" >
<g>
<circle cx="371.466" cy="130.143" r="3.000" fill="none" stroke="#0000ff" stroke-width="0.5pt" />
</g>
</g>
<g id="ID000041" clip-path="url(#ID000001)" >
<g>
<circle cx="390.688" cy="109.936" r="1.000" fill="#000000" stroke="none" stroke-width="0.5pt" />
</g>
</g>
<g id="ID000042" clip-path="url(#ID000001)" >
      <polyline fill="none" stroke="#0000ff" stroke-width="0.5pt" stroke-dasharray="none" points="371.466,130.143 371.080,130.555 370.698,130.977 370.320,131.407 369.946,131.846 369.576,132.294 369.211,132.750 368.850,133.215 368.493,133.690 368.140,134.173 367.791,134.664 367.447,135.165 367.106,135.674 366.770,136.192 366.438,136.719 366.111,137.255 365.787,137.800 365.467,138.353 365.152,138.915 364.841,139.486 364.534,140.066 364.231,140.654 363.933,141.252 363.638,141.858 363.348,142.473 363.062,143.097 362.780,143.729 362.503,144.370 362.229,145.020 361.960,145.679 361.694,146.347 361.433,147.024 361.177,147.709 360.924,148.403 360.675,149.106 360.431,149.817 360.191,150.538 359.955,151.267 359.723,152.005 359.496,152.752 359.272,153.508 359.053,154.272 358.838,155.046 358.627,155.828 358.420,156.618 358.217,157.418 358.019,158.226 357.825,159.044 357.635,159.870 357.449,160.705 357.267,161.548 357.090,162.401 356.916,163.262 356.747,164.132 356.582,165.011 356.421,165.898 356.265,166.795 356.112,167.700 355.964,168.614 355.820,169.537 355.680,170.468 355.544,171.409 355.412,172.358 355.285,173.316 355.162,174.283 355.042,175.258 354.928,176.242 354.817,177.236 354.710,178.238 354.608,179.248 354.510,180.268 354.416,181.296 354.326,182.333 354.240,183.379 354.158,184.434 354.081,185.498 354.008,186.570 353.939,187.651 353.874,188.741 353.813,189.840 353.757,190.947 353.705,192.064 353.656,193.189 353.613,194.323 353.573,195.465 353.537,196.617 353.506,197.777 353.478,198.946 353.455,200.124 353.436,201.311 353.422,202.506 353.411,203.710 353.405,204.923 353.402,206.145 353.404,207.376 353.411,208.615 353.421,209.864 353.435,211.121 353.454,212.387 353.477,213.661 "/>
<g>
</g>
</g>
<g id="ID000043" clip-path="url(#ID000001)" >
<g>
<circle cx="371.466" cy="130.143" r="3.000" fill="none" stroke="#0000ff" stroke-width="0.5pt" />
</g>
</g>
<g id="ID000044" clip-path="url(#ID000001)" >
<g>
<circle cx="353.477" cy="213.661" r="3.000" fill="none" stroke="#0000ff" stroke-width="0.5pt" />
</g>
</g>
<g id="ID000045" clip-path="url(#ID000001)" >
<g>
<circle cx="352.244" cy="150.349" r="1.000" fill="#000000" stroke="none" stroke-width="0.5pt" />
</g>
</g>
<g id="ID000046" clip-path="url(#ID000001)" >
      <polyline fill="none" stroke="#0000ff" stroke-width="0.5pt" stroke-dasharray="none" points="353.477,213.661 353.477,218.330 353.477,222.952 353.477,227.527 353.477,232.053 353.477,236.533 353.477,240.965 353.477,245.350 353.477,249.687 353.477,253.977 353.477,258.220 353.477,262.415 353.477,266.562 353.477,270.663 353.477,274.716 353.477,278.721 353.477,282.679 353.477,286.590 353.477,290.453 353.477,294.269 353.477,298.038 353.477,301.759 353.477,305.432 353.477,309.059 353.477,312.638 353.477,316.169 353.477,319.653 353.477,323.090 353.477,326.479 353.477,329.821 353.477,333.116 353.477,336.363 353.477,339.562 353.477,342.715 353.477,345.819 353.477,348.877 353.477,351.887 353.477,354.850 353.477,357.765 353.477,360.633 353.477,363.453 353.477,366.226 353.477,368.952 353.477,371.630 353.477,374.261 353.477,376.844 353.477,379.380 353.477,381.869 353.477,384.310 353.477,386.704 353.477,389.050 353.477,391.349 353.477,393.601 353.477,395.805 353.477,397.962 353.477,400.072 353.477,402.134 353.477,404.148 353.477,406.115 353.477,408.035 353.477,409.908 353.477,411.733 353.477,413.510 353.477,415.240 353.477,416.923 353.477,418.559 353.477,420.146 353.477,421.687 353.477,423.180 353.477,424.626 353.477,426.024 353.477,427.375 353.477,428.679 353.477,429.935 353.477,431.144 353.477,432.305 353.477,433.419 353.477,434.486 353.477,435.505 353.477,436.477 353.477,437.401 353.477,438.278 353.477,439.107 353.477,439.890 353.477,440.624 353.477,441.312 353.477,441.952 353.477,442.544 353.477,443.089 353.477,443.587 353.477,444.037 353.477,444.440 353.477,444.796 353.477,445.104 353.477,445.365 353.477,445.578 353.477,445.744 353.477,445.862 353.477,445.933 353.477,445.957 "/>
<g>
</g>
</g>
<g id="ID000047" clip-path="url(#ID000001)" >
<g>
<circle cx="353.477" cy="213.661" r="3.000" fill="none" stroke="#0000ff" stroke-width="0.5pt" />
</g>
</g>
<g id="ID000048" clip-path="url(#ID000001)" >
<g>
<circle cx="353.477" cy="445.957" r="3.000" fill="none" stroke="#0000ff" stroke-width="0.5pt" />
</g>
</g>
<g id="ID000049" clip-path="url(#ID000001)" >
<g>
<circle cx="353.477" cy="445.957" r="1.000" fill="#000000" stroke="none" stroke-width="0.5pt" />
</g>
</g>
<g id="ID000050" clip-path="url(#ID000001)" >
      <polyline fill="none" stroke="#0000ff" stroke-width="0.5pt" stroke-dasharray="none" points="353.477,445.957 360.545,445.957 367.542,445.957 374.466,445.957 381.319,445.957 388.101,445.957 394.810,445.957 401.448,445.957 408.014,445.957 414.508,445.957 420.931,445.957 427.281,445.957 433.560,445.957 439.768,445.957 445.903,445.957 451.967,445.957 457.959,445.957 463.879,445.957 469.727,445.957 475.504,445.957 481.209,445.957 486.842,445.957 492.403,445.957 497.893,445.957 503.311,445.957 508.657,445.957 513.931,445.957 519.134,445.957 524.264,445.957 529.323,445.957 534.311,445.957 539.226,445.957 544.070,445.957 548.842,445.957 553.542,445.957 558.171,445.957 562.727,445.957 567.212,445.957 571.626,445.957 575.967,445.957 580.237,445.957 584.435,445.957 588.561,445.957 592.615,445.957 596.598,445.957 600.509,445.957 604.348,445.957 608.115,445.957 611.811,445.957 615.435,445.957 618.987,445.957 622.467,445.957 625.876,445.957 629.213,445.957 632.478,445.957 635.671,445.957 638.792,445.957 641.842,445.957 644.820,445.957 647.727,445.957 650.561,445.957 653.324,445.957 656.015,445.957 658.634,445.957 661.181,445.957 663.657,445.957 666.061,445.957 668.393,445.957 670.654,445.957 672.842,445.957 674.959,445.957 677.004,445.957 678.978,445.957 680.879,445.957 682.709,445.957 684.467,445.957 686.154,445.957 687.768,445.957 689.311,445.957 690.782,445.957 692.182,445.957 693.509,445.957 694.765,445.957 695.949,445.957 697.061,445.957 698.102,445.957 699.070,445.957 699.967,445.957 700.793,445.957 701.546,445.957 702.228,445.957 702.838,445.957 703.376,445.957 703.842,445.957 704.237,445.957 704.560,445.957 704.811,445.957 704.991,445.957 705.098,445.957 705.134,445.957 "/>
<g>
</g>
</g>
<g id="ID000051" clip-path="url(#ID000001)" >
<g>
<circle cx="353.477" cy="445.957" r="3.000" fill="none" stroke="#0000ff" stroke-width="0.5pt" />
</g>
</g>
<g id="ID000052" clip-path="url(#ID000001)" >
<g>
<circle cx="705.134" cy="445.957" r="3.000" fill="none" stroke="#0000ff" stroke-width="0.5pt" />
</g>
</g>
<g id="ID000053" clip-path="url(#ID000001)" >
<g>
<circle cx="705.134" cy="445.957" r="1.000" fill="#000000" stroke="none" stroke-width="0.5pt" />
</g>
</g>
<g id="ID000054" clip-path="url(#ID000001)" >
      <polyline fill="none" stroke="#0000ff" stroke-width="0.5pt" stroke-dasharray="none" points="705.134,445.957 705.134,441.288 705.134,436.666 705.134,432.092 705.134,427.565 705.134,423.085 705.134,418.653 705.134,414.269 705.134,409.931 705.134,405.641 705.134,401.399 705.134,397.204 705.134,393.056 705.134,388.956 705.134,384.903 705.134,380.897 705.134,376.939 705.134,373.028 705.134,369.165 705.134,365.349 705.134,361.581 705.134,357.860 705.134,354.186 705.134,350.560 705.134,346.981 705.134,343.449 705.134,339.965 705.134,336.529 705.134,333.139 705.134,329.797 705.134,326.503 705.134,323.256 705.134,320.056 705.134,316.904 705.134,313.799 705.134,310.742 705.134,307.732 705.134,304.769 705.134,301.854 705.134,298.986 705.134,296.165 705.134,293.392 705.134,290.667 705.134,287.988 705.134,285.358 705.134,282.774 705.134,280.238 705.134,277.749 705.134,275.308 705.134,272.914 705.134,270.568 705.134,268.269 705.134,266.017 705.134,263.813 705.134,261.656 705.134,259.547 705.134,257.485 705.134,255.470 705.134,253.503 705.134,251.583 705.134,249.711 705.134,247.886 705.134,246.108 705.134,244.378 705.134,242.695 705.134,241.060 705.134,239.472 705.134,237.931 705.134,236.438 705.134,234.992 705.134,233.594 705.134,232.243 705.134,230.939 705.134,229.683 705.134,228.475 705.134,227.313 705.134,226.199 705.134,225.133 705.134,224.114 705.134,223.142 705.134,222.217 705.134,221.340 705.134,220.511 705.134,219.729 705.134,218.994 705.134,218.307 705.134,217.667 705.134,217.074 705.134,216.529 705.134,216.031 705.134,215.581 705.134,215.178 705.134,214.823 705.134,214.515 705.134,214.254 705.134,214.040 705.134,213.875 705.134,213.756 705.134,213.685 705.134,213.661 "/>
<g>
</g>
</g>
<g id="ID000055" clip-path="url(#ID000001)" >
<g>
<circle cx="705.134" cy="445.957" r="3.000" fill="none" stroke="#0000ff" stroke-width="0.5pt" />
</g>
</g>
<g id="ID000056" clip-path="url(#ID000001)" >
<g>
<circle cx="705.134" cy="213.661" r="3.000" fill="none" stroke="#0000ff" stroke-width="0.5pt" />
</g>
</g>
<g id="ID000057" clip-path="url(#ID000001)" >
<g>
<circle cx="705.134" cy="213.661" r="1.000" fill="#000000" stroke="none" stroke-width="0.5pt" />
</g>
</g>
<g id="ID000058" clip-path="url(#ID000001)" >
      <polyline fill="none" stroke="#0000ff" stroke-width="0.5pt" stroke-dasharray="none" points="705.134,213.661 705.157,212.369 705.176,211.085 705.190,209.810 705.200,208.544 705.207,207.288 705.208,206.040 705.206,204.801 705.200,203.571 705.189,202.350 705.175,201.138 705.156,199.936 705.133,198.742 705.105,197.557 705.074,196.381 705.038,195.214 704.998,194.056 704.954,192.907 704.906,191.767 704.854,190.636 704.798,189.514 704.737,188.400 704.672,187.296 704.603,186.201 704.530,185.115 704.452,184.038 704.371,182.970 704.285,181.910 704.195,180.860 704.101,179.819 704.003,178.787 703.901,177.763 703.794,176.749 703.683,175.744 703.568,174.747 703.449,173.760 703.326,172.781 703.199,171.812 703.067,170.852 702.931,169.900 702.791,168.958 702.647,168.024 702.499,167.100 702.346,166.184 702.190,165.277 702.029,164.380 701.864,163.491 701.695,162.612 701.521,161.741 701.344,160.879 701.162,160.027 700.976,159.183 700.786,158.348 700.592,157.522 700.393,156.706 700.191,155.898 699.984,155.099 699.773,154.309 699.558,153.528 699.339,152.756 699.115,151.993 698.888,151.240 698.656,150.495 698.420,149.759 698.180,149.032 697.936,148.314 697.687,147.605 697.434,146.905 697.178,146.214 696.917,145.531 696.651,144.858 696.382,144.194 696.108,143.539 695.831,142.893 695.549,142.256 695.263,141.628 694.973,141.008 694.678,140.398 694.380,139.797 694.077,139.205 693.770,138.621 693.459,138.047 693.143,137.482 692.824,136.925 692.500,136.378 692.173,135.839 691.841,135.310 691.504,134.789 691.164,134.278 690.820,133.776 690.471,133.282 690.118,132.797 689.761,132.322 689.400,131.855 689.035,131.398 688.665,130.949 688.291,130.510 687.913,130.079 687.531,129.657 687.145,129.244 "/>
<g>
</g>
</g>
<g id="ID000059" clip-path="url(#ID000001)" >
<g>
<circle cx="705.134" cy="213.661" r="3.000" fill="none" stroke="#0000ff" stroke-width="0.5pt" />
</g>
</g>
<g id="ID000060" clip-path="url(#ID000001)" >
<g>
<circle cx="687.145" cy="129.244" r="3.000" fill="none" stroke="#0000ff" stroke-width="0.5pt" />
</g>
</g>
<g id="ID000061" clip-path="url(#ID000001)" >
<g>
<circle cx="706.367" cy="149.451" r="1.000" fill="#000000" stroke="none" stroke-width="0.5pt" />
</g>
</g>
<g id="ID000062" clip-path="url(#ID000001)" >
      <polyline fill="none" stroke="#0000ff" stroke-width="0.5pt" stroke-dasharray="none" points="687.145,129.244 686.752,128.838 686.350,128.435 685.938,128.036 685.517,127.640 685.087,127.247 684.647,126.858 684.198,126.472 683.740,126.090 683.272,125.712 682.796,125.337 682.309,124.965 681.814,124.597 681.309,124.232 680.795,123.871 680.271,123.513 679.738,123.159 679.196,122.808 678.644,122.461 678.084,122.117 677.513,121.777 676.934,121.440 676.345,121.107 675.747,120.777 675.140,120.450 674.523,120.127 673.897,119.808 673.261,119.492 672.616,119.180 671.962,118.871 671.299,118.565 670.626,118.263 669.944,117.965 669.253,117.670 668.552,117.378 667.842,117.090 667.123,116.805 666.394,116.524 665.656,116.247 664.908,115.972 664.152,115.702 663.386,115.435 662.611,115.171 661.826,114.911 661.032,114.654 660.229,114.401 659.416,114.151 658.594,113.905 657.763,113.662 656.922,113.422 656.072,113.187 655.213,112.954 654.344,112.725 653.467,112.500 652.579,112.278 651.683,112.060 650.777,111.845 649.862,111.633 648.937,111.425 648.003,111.221 647.060,111.020 646.108,110.822 645.146,110.628 644.175,110.437 643.194,110.250 642.204,110.067 641.205,109.886 640.197,109.710 639.179,109.537 638.152,109.367 637.115,109.201 636.070,109.038 635.015,108.879 633.950,108.723 632.877,108.571 631.793,108.422 630.701,108.277 629.599,108.135 628.488,107.996 627.368,107.862 626.238,107.730 625.099,107.602 623.951,107.478 622.793,107.357 621.626,107.239 620.450,107.125 619.264,107.015 618.069,106.908 616.865,106.804 615.652,106.704 614.429,106.608 613.196,106.515 611.955,106.425 610.704,106.339 609.444,106.256 608.174,106.177 606.895,106.101 605.607,106.029 604.309,105.960 603.003,105.895 "/>
<g>
</g>
</g>
<g id="ID000063" clip-path="url(#ID000001)" >
<g>
<circle cx="687.145" cy="129.244" r="3.000" fill="none" stroke="#0000ff" stroke-width="0.5pt" />
</g>
</g>
<g id="ID000064" clip-path="url(#ID000001)" >
<g>
<circle cx="603.003" cy="105.895" r="3.000" fill="none" stroke="#0000ff" stroke-width="0.5pt" />
</g>
</g>
<g id="ID000065" clip-path="url(#ID000001)" >
<g>
<circle cx="667.923" cy="109.038" r="1.000" fill="#000000" stroke="none" stroke-width="0.5pt" />
</g>
</g>
<g id="ID000066" clip-path="url(#ID000001)" >
      <polyline fill="none" stroke="#0000ff" stroke-width="0.5pt" stroke-dasharray="none" points="603.003,105.895 603.003,105.438 603.003,104.985 603.003,104.537 603.003,104.094 603.003,103.655 603.003,103.221 603.003,102.792 603.003,102.367 603.003,101.947 603.003,101.531 603.003,101.120 603.003,100.714 603.003,100.313 603.003,99.916 603.003,99.523 603.003,99.136 603.003,98.753 603.003,98.374 603.003,98.001 603.003,97.631 603.003,97.267 603.003,96.907 603.003,96.552 603.003,96.202 603.003,95.856 603.003,95.515 603.003,95.178 603.003,94.846 603.003,94.519 603.003,94.196 603.003,93.878 603.003,93.565 603.003,93.256 603.003,92.952 603.003,92.652 603.003,92.358 603.003,92.067 603.003,91.782 603.003,91.501 603.003,91.225 603.003,90.953 603.003,90.686 603.003,90.424 603.003,90.166 603.003,89.913 603.003,89.665 603.003,89.421 603.003,89.182 603.003,88.948 603.003,88.718 603.003,88.493 603.003,88.272 603.003,88.056 603.003,87.845 603.003,87.638 603.003,87.437 603.003,87.239 603.003,87.047 603.003,86.859 603.003,86.675 603.003,86.496 603.003,86.322 603.003,86.153 603.003,85.988 603.003,85.828 603.003,85.672 603.003,85.521 603.003,85.375 603.003,85.234 603.003,85.097 603.003,84.964 603.003,84.837 603.003,84.714 603.003,84.595 603.003,84.482 603.003,84.372 603.003,84.268 603.003,84.168 603.003,84.073 603.003,83.983 603.003,83.897 603.003,83.815 603.003,83.739 603.003,83.667 603.003,83.599 603.003,83.537 603.003,83.479 603.003,83.425 603.003,83.377 603.003,83.333 603.003,83.293 603.003,83.258 603.003,83.228 603.003,83.203 603.003,83.182 603.003,83.165 603.003,83.154 603.003,83.147 603.003,83.145 "/>
<g>
</g>
</g>
<g id="ID000067" clip-path="url(#ID000001)" >
<g>
<circle cx="603.003" cy="105.895" r="3.000" fill="none" stroke="#0000ff" stroke-width="0.5pt" />
</g>
</g>
<g id="ID000068" clip-path="url(#ID000001)" >
<g>
<circle cx="603.003" cy="83.145" r="3.000" fill="none" stroke="#0000ff" stroke-width="0.5pt" />
</g>
</g>
<g id="ID000069" clip-path="url(#ID000001)" >
<g>
<circle cx="603.003" cy="83.145" r="1.000" fill="#000000" stroke="none" stroke-width="0.5pt" />
</g>
</g>
<g id="ID000070" clip-path="url(#ID000001)" >
      <polyline fill="none" stroke="#0000ff" stroke-width="0.5pt" stroke-dasharray="none" points="603.003,83.145 609.488,83.145 615.907,83.145 622.260,83.145 628.548,83.145 634.770,83.145 640.926,83.145 647.016,83.145 653.040,83.145 658.998,83.145 664.891,83.145 670.718,83.145 676.479,83.145 682.174,83.145 687.803,83.145 693.366,83.145 698.864,83.145 704.296,83.145 709.661,83.145 714.961,83.145 720.196,83.145 725.364,83.145 730.466,83.145 735.503,83.145 740.474,83.145 745.379,83.145 750.218,83.145 754.991,83.145 759.699,83.145 764.340,83.145 768.916,83.145 773.426,83.145 777.870,83.145 782.249,83.145 786.561,83.145 790.808,83.145 794.988,83.145 799.103,83.145 803.152,83.145 807.136,83.145 811.053,83.145 814.905,83.145 818.690,83.145 822.410,83.145 826.064,83.145 829.652,83.145 833.175,83.145 836.631,83.145 840.022,83.145 843.347,83.145 846.606,83.145 849.799,83.145 852.926,83.145 855.988,83.145 858.984,83.145 861.913,83.145 864.777,83.145 867.576,83.145 870.308,83.145 872.974,83.145 875.575,83.145 878.110,83.145 880.579,83.145 882.982,83.145 885.319,83.145 887.591,83.145 889.796,83.145 891.936,83.145 894.010,83.145 896.018,83.145 897.960,83.145 899.837,83.145 901.647,83.145 903.392,83.145 905.071,83.145 906.684,83.145 908.231,83.145 909.712,83.145 911.128,83.145 912.478,83.145 913.761,83.145 914.979,83.145 916.132,83.145 917.218,83.145 918.238,83.145 919.193,83.145 920.082,83.145 920.905,83.145 921.662,83.145 922.353,83.145 922.979,83.145 923.538,83.145 924.032,83.145 924.460,83.145 924.822,83.145 925.119,83.145 925.349,83.145 925.514,83.145 925.612,83.145 925.645,83.145 "/>
<g>
</g>
</g>
<g id="ID000071" clip-path="url(#ID000001)" >
<g>
<circle cx="603.003" cy="83.145" r="3.000" fill="none" stroke="#0000ff" stroke-width="0.5pt" />
</g>
</g>
<g id="ID000072" clip-path="url(#ID000001)" >
<g>
<circle cx="925.645" cy="83.145" r="3.000" fill="none" stroke="#0000ff" stroke-width="0.5pt" />
</g>
</g>
<g id="ID000073" clip-path="url(#ID000001)" >
<g>
<circle cx="925.645" cy="83.145" r="1.000" fill="#000000" stroke="none" stroke-width="0.5pt" />
</g>
</g>
<g id="ID000074" clip-path="url(#ID000001)" >
      <polyline fill="none" stroke="#0000ff" stroke-width="0.5pt" stroke-dasharray="none" points="925.645,83.145 925.645,83.602 925.645,84.054 925.645,84.502 925.645,84.946 925.645,85.385 925.645,85.819 925.645,86.248 925.645,86.673 925.645,87.093 925.645,87.508 925.645,87.919 925.645,88.326 925.645,88.727 925.645,89.124 925.645,89.516 925.645,89.904 925.645,90.287 925.645,90.665 925.645,91.039 925.645,91.408 925.645,91.773 925.645,92.132 925.645,92.488 925.645,92.838 925.645,93.184 925.645,93.525 925.645,93.862 925.645,94.194 925.645,94.521 925.645,94.844 925.645,95.162 925.645,95.475 925.645,95.784 925.645,96.088 925.645,96.387 925.645,96.682 925.645,96.972 925.645,97.258 925.645,97.539 925.645,97.815 925.645,98.086 925.645,98.353 925.645,98.616 925.645,98.873 925.645,99.126 925.645,99.375 925.645,99.618 925.645,99.858 925.645,100.092 925.645,100.322 925.645,100.547 925.645,100.768 925.645,100.983 925.645,101.195 925.645,101.401 925.645,101.603 925.645,101.800 925.645,101.993 925.645,102.181 925.645,102.365 925.645,102.543 925.645,102.717 925.645,102.887 925.645,103.052 925.645,103.212 925.645,103.367 925.645,103.518 925.645,103.664 925.645,103.806 925.645,103.943 925.645,104.075 925.645,104.203 925.645,104.326 925.645,104.444 925.645,104.558 925.645,104.667 925.645,104.772 925.645,104.871 925.645,104.967 925.645,105.057 925.645,105.143 925.645,105.224 925.645,105.301 925.645,105.373 925.645,105.440 925.645,105.503 925.645,105.561 925.645,105.614 925.645,105.663 925.645,105.707 925.645,105.747 925.645,105.781 925.645,105.812 925.645,105.837 925.645,105.858 925.645,105.874 925.645,105.886 925.645,105.893 925.645,105.895 "/>
<g>
</g>
</g>
<g id="ID000075" clip-path="url(#ID000001)" >
<g>
<circle cx="925.645" cy="83.145" r="3.000" fill="none" stroke="#0000ff" stroke-width="0.5pt" />
</g>
</g>
<g id="ID000076" clip-path="url(#ID000001)" >
<g>
<circle cx="925.645" cy="105.895" r="3.000" fill="none" stroke="#0000ff" stroke-width="0.5pt" />
</g>
</g>
<g id="ID000077" clip-path="url(#ID000001)" >
<g>
<circle cx="925.645" cy="105.895" r="1.000" fill="#000000" stroke="none" stroke-width="0.5pt" />
</g>
</g>
<g id="ID000078" clip-path="url(#ID000001)" >
      <polyline fill="none" stroke="#0000ff" stroke-width="0.5pt" stroke-dasharray="none" points="925.645,105.895 924.338,105.978 923.041,106.065 921.753,106.155 920.474,106.248 919.204,106.345 917.944,106.444 916.693,106.547 915.452,106.654 914.219,106.764 912.996,106.876 911.783,106.993 910.578,107.112 909.384,107.235 908.198,107.361 907.022,107.491 905.855,107.624 904.697,107.760 903.549,107.899 902.410,108.042 901.280,108.188 900.160,108.337 899.049,108.490 897.947,108.645 896.854,108.805 895.771,108.967 894.698,109.133 893.633,109.302 892.578,109.474 891.532,109.650 890.496,109.829 889.469,110.011 888.451,110.197 887.443,110.385 886.444,110.578 885.454,110.773 884.473,110.972 883.502,111.174 882.540,111.379 881.588,111.588 880.645,111.800 879.711,112.015 878.786,112.233 877.871,112.455 876.965,112.680 876.069,112.909 875.181,113.141 874.304,113.376 873.435,113.614 872.576,113.856 871.726,114.100 870.885,114.349 870.054,114.600 869.232,114.855 868.419,115.113 867.616,115.375 866.822,115.639 866.037,115.907 865.262,116.179 864.496,116.453 863.739,116.731 862.992,117.012 862.254,117.297 861.525,117.585 860.806,117.876 860.096,118.170 859.395,118.468 858.704,118.769 858.022,119.073 857.349,119.381 856.686,119.692 856.032,120.006 855.387,120.323 854.751,120.644 854.125,120.968 853.508,121.296 852.901,121.626 852.303,121.960 851.714,122.298 851.134,122.638 850.564,122.982 850.003,123.329 849.452,123.680 848.910,124.033 848.377,124.391 847.853,124.751 847.339,125.115 846.834,125.482 846.339,125.852 845.852,126.225 845.375,126.602 844.908,126.982 844.450,127.366 844.001,127.753 843.561,128.143 843.131,128.536 842.710,128.933 842.298,129.333 841.896,129.736 841.503,130.143 "/>
<g>
</g>
</g>
<g id="ID000079" clip-path="url(#ID000001)" >
<g>
<circle cx="925.645" cy="105.895" r="3.000" fill="none" stroke="#0000ff" stroke-width="0.5pt" />
</g>
</g>
<g id="ID000080" clip-path="url(#ID000001)" >
<g>
<circle cx="841.503" cy="130.143" r="3.000" fill="none" stroke="#0000ff" stroke-width="0.5pt" />
</g>
</g>
<g id="ID000081" clip-path="url(#ID000001)" >
<g>
<circle cx="860.725" cy="109.936" r="1.000" fill="#000000" stroke="none" stroke-width="0.5pt" />
</g>
</g>
<g id="ID000082" clip-path="url(#ID000001)" >
      <polyline fill="none" stroke="#0000ff" stroke-width="0.5pt" stroke-dasharray="none" points="841.503,130.143 841.117,130.555 840.735,130.977 840.357,131.407 839.983,131.846 839.613,132.294 839.248,132.750 838.887,133.215 838.530,133.690 838.177,134.173 837.828,134.664 837.484,135.165 837.143,135.674 836.807,136.192 836.475,136.719 836.148,137.255 835.824,137.800 835.504,138.353 835.189,138.915 834.878,139.486 834.571,140.066 834.268,140.654 833.970,141.252 833.675,141.858 833.385,142.473 833.099,143.097 832.817,143.729 832.540,144.370 832.266,145.020 831.997,145.679 831.731,146.347 831.470,147.024 831.214,147.709 830.961,148.403 830.712,149.106 830.468,149.817 830.228,150.538 829.992,151.267 829.760,152.005 829.533,152.752 829.309,153.508 829.090,154.272 828.875,155.046 828.664,155.828 828.457,156.618 828.254,157.418 828.056,158.226 827.862,159.044 827.672,159.870 827.486,160.705 827.304,161.548 827.127,162.401 826.953,163.262 826.784,164.132 826.619,165.011 826.458,165.898 826.302,166.795 826.149,167.700 826.001,168.614 825.857,169.537 825.717,170.468 825.581,171.409 825.449,172.358 825.322,173.316 825.199,174.283 825.079,175.258 824.965,176.242 824.854,177.236 824.747,178.238 824.645,179.248 824.547,180.268 824.453,181.296 824.363,182.333 824.277,183.379 824.195,184.434 824.118,185.498 824.045,186.570 823.976,187.651 823.911,188.741 823.850,189.840 823.794,190.947 823.742,192.064 823.693,193.189 823.650,194.323 823.610,195.465 823.574,196.617 823.543,197.777 823.515,198.946 823.492,200.124 823.473,201.311 823.459,202.506 823.448,203.710 823.442,204.923 823.439,206.145 823.441,207.376 823.448,208.615 823.458,209.864 823.472,211.121 823.491,212.387 823.514,213.661 "/>
<g>
</g>
</g>
<g id="ID000083" clip-path="url(#ID000001)" >
<g>
<circle cx="841.503" cy="130.143" r="3.000" fill="none" stroke="#0000ff" stroke-width="0.5pt" />
</g>
</g>
<g id="ID000084" clip-path="url(#ID000001)" >
<g>
<circle cx="823.514" cy="213.661" r="3.000" fill="none" stroke="#0000ff" stroke-width="0.5pt" />
</g>
</g>
<g id="ID000085" clip-path="url(#ID000001)" >
<g>
<circle cx="822.281" cy="150.349" r="1.000" fill="#000000" stroke="none" stroke-width="0.5pt" />
</g>
</g>
<g id="ID000086" clip-path="url(#ID000001)" >
      <polyline fill="none" stroke="#0000ff" stroke-width="0.5pt" stroke-dasharray="none" points="823.514,213.661 823.514,224.347 823.514,234.925 823.514,245.394 823.514,255.755 823.514,266.007 823.514,276.150 823.514,286.186 823.514,296.112 823.514,305.930 823.514,315.640 823.514,325.241 823.514,334.734 823.514,344.118 823.514,353.394 823.514,362.561 823.514,371.620 823.514,380.570 823.514,389.412 823.514,398.145 823.514,406.770 823.514,415.287 823.514,423.694 823.514,431.994 823.514,440.185 823.514,448.267 823.514,456.241 823.514,464.106 823.514,471.863 823.514,479.511 823.514,487.051 823.514,494.483 823.514,501.806 823.514,509.020 823.514,516.126 823.514,523.124 823.514,530.013 823.514,536.793 823.514,543.465 823.514,550.029 823.514,556.484 823.514,562.830 823.514,569.068 823.514,575.198 823.514,581.219 823.514,587.132 823.514,592.936 823.514,598.631 823.514,604.219 823.514,609.697 823.514,615.067 823.514,620.329 823.514,625.482 823.514,630.527 823.514,635.463 823.514,640.291 823.514,645.010 823.514,649.621 823.514,654.123 823.514,658.517 823.514,662.802 823.514,666.979 823.514,671.047 823.514,675.007 823.514,678.858 823.514,682.601 823.514,686.236 823.514,689.762 823.514,693.179 823.514,696.488 823.514,699.688 823.514,702.780 823.514,705.764 823.514,708.638 823.514,711.405 823.514,714.063 823.514,716.612 823.514,719.053 823.514,721.386 823.514,723.610 823.514,725.725 823.514,727.732 823.514,729.631 823.514,731.421 823.514,733.103 823.514,734.676 823.514,736.140 823.514,737.496 823.514,738.744 823.514,739.883 823.514,740.914 823.514,741.836 823.514,742.650 823.514,743.355 823.514,743.951 823.514,744.440 823.514,744.819 823.514,745.090 823.514,745.253 823.514,745.307 "/>
<g>
</g>
</g>
<g id="ID000087" clip-path="url(#ID000001)" >
<g>
<circle cx="823.514" cy="213.661" r="3.000" fill="none" stroke="#0000ff" stroke-width="0.5pt" />
</g>
</g>
<g id="ID000088" clip-path="url(#ID000001)" >
<g>
<circle cx="823.514" cy="745.307" r="3.000" fill="none" stroke="#0000ff" stroke-width="0.5pt" />
</g>
</g>
<g id="ID000089" clip-path="url(#ID000001)" >
<g>
<circle cx="823.514" cy="745.307" r="1.000" fill="#000000" stroke="none" stroke-width="0.5pt" />
</g>
</g>
<g id="ID000090" clip-path="url(#ID000001)" >
      <polyline fill="none" stroke="#0000ff" stroke-width="0.5pt" stroke-dasharray="none" points="823.514,745.307 823.495,746.569 823.481,747.821 823.471,749.065 823.466,750.301 823.465,751.528 823.467,752.747 823.475,753.957 823.486,755.158 823.502,756.351 823.522,757.536 823.546,758.712 823.575,759.879 823.607,761.038 823.644,762.188 823.686,763.330 823.731,764.464 823.781,765.589 823.835,766.705 823.893,767.813 823.956,768.912 824.023,770.003 824.094,771.085 824.170,772.159 824.249,773.224 824.333,774.280 824.421,775.329 824.514,776.368 824.610,777.399 824.711,778.422 824.817,779.436 824.926,780.441 825.040,781.438 825.158,782.427 825.280,783.407 825.407,784.378 825.538,785.341 825.673,786.296 825.812,787.242 825.956,788.179 826.104,789.108 826.256,790.028 826.412,790.940 826.573,791.843 826.738,792.738 826.907,793.624 827.080,794.502 827.258,795.371 827.440,796.232 827.626,797.084 827.817,797.927 828.011,798.763 828.211,799.589 828.414,800.407 828.621,801.217 828.833,802.018 829.049,802.810 829.270,803.594 829.494,804.370 829.723,805.137 829.956,805.895 830.194,806.645 830.435,807.386 830.681,808.119 830.931,808.843 831.186,809.559 831.444,810.266 831.707,810.965 831.975,811.655 832.246,812.337 832.522,813.010 832.802,813.675 833.086,814.331 833.375,814.979 833.668,815.618 833.965,816.249 834.266,816.871 834.572,817.484 834.881,818.089 835.196,818.686 835.514,819.274 835.837,819.853 836.164,820.424 836.495,820.986 836.830,821.540 837.170,822.086 837.514,822.623 837.862,823.151 838.215,823.671 838.571,824.182 838.932,824.685 839.298,825.179 839.667,825.665 840.041,826.142 840.419,826.611 840.801,827.071 841.188,827.522 841.579,827.966 841.974,828.400 842.373,828.826 "/>
<g>
</g>
</g>
<g id="ID000091" clip-path="url(#ID000001)" >
<g>
<circle cx="823.514" cy="745.307" r="3.000" fill="none" stroke="#0000ff" stroke-width="0.5pt" />
</g>
</g>
<g id="ID000092" clip-path="url(#ID000001)" >
<g>
<circle cx="842.373" cy="828.826" r="3.000" fill="none" stroke="#0000ff" stroke-width="0.5pt" />
</g>
</g>
<g id="ID000093" clip-path="url(#ID000001)" >
<g>
<circle cx="822.498" cy="807.947" r="1.000" fill="#000000" stroke="none" stroke-width="0.5pt" />
</g>
</g>
<g id="ID000094" clip-path="url(#ID000001)" >
      <polyline fill="none" stroke="#0000ff" stroke-width="0.5pt" stroke-dasharray="none" points="842.373,828.826 842.779,829.246 843.194,829.663 843.618,830.076 844.050,830.485 844.492,830.891 844.942,831.293 845.402,831.691 845.870,832.086 846.347,832.478 846.833,832.866 847.327,833.250 847.831,833.631 848.343,834.008 848.865,834.381 849.395,834.751 849.934,835.118 850.482,835.481 851.039,835.840 851.605,836.196 852.180,836.548 852.763,836.896 853.356,837.241 853.957,837.583 854.567,837.921 855.187,838.255 855.815,838.585 856.451,838.913 857.097,839.236 857.752,839.556 858.415,839.872 859.088,840.185 859.769,840.495 860.459,840.800 861.158,841.102 861.866,841.401 862.583,841.696 863.309,841.987 864.043,842.275 864.787,842.559 865.539,842.840 866.300,843.117 867.070,843.390 867.849,843.660 868.637,843.927 869.434,844.190 870.239,844.449 871.054,844.704 871.877,844.956 872.709,845.205 873.551,845.450 874.401,845.691 875.259,845.929 876.127,846.163 877.004,846.394 877.889,846.621 878.784,846.844 879.687,847.064 880.599,847.281 881.520,847.493 882.450,847.703 883.389,847.908 884.337,848.110 885.293,848.309 886.259,848.504 887.233,848.695 888.216,848.883 889.209,849.067 890.210,849.247 891.219,849.424 892.238,849.598 893.266,849.768 894.302,849.934 895.348,850.097 896.402,850.256 897.465,850.412 898.537,850.564 899.618,850.712 900.708,850.857 901.807,850.998 902.914,851.136 904.031,851.270 905.156,851.401 906.290,851.528 907.433,851.651 908.585,851.771 909.746,851.887 910.916,852.000 912.094,852.109 913.282,852.215 914.478,852.317 915.684,852.415 916.898,852.510 918.121,852.601 919.353,852.689 920.593,852.773 921.843,852.853 923.102,852.930 924.369,853.004 925.645,853.074 "/>
<g>
</g>
</g>
<g id="ID000095" clip-path="url(#ID000001)" >
<g>
<circle cx="842.373" cy="828.826" r="3.000" fill="none" stroke="#0000ff" stroke-width="0.5pt" />
</g>
</g>
<g id="ID000096" clip-path="url(#ID000001)" >
<g>
<circle cx="925.645" cy="853.074" r="3.000" fill="none" stroke="#0000ff" stroke-width="0.5pt" />
</g>
</g>
<g id="ID000097" clip-path="url(#ID000001)" >
<g>
<circle cx="862.248" cy="849.706" r="1.000" fill="#000000" stroke="none" stroke-width="0.5pt" />
</g>
</g>
<g id="ID000098" clip-path="url(#ID000001)" >
      <polyline fill="none" stroke="#0000ff" stroke-width="0.5pt" stroke-dasharray="none" points="925.645,853.074 925.645,853.531 925.645,853.984 925.645,854.432 925.645,854.875 925.645,855.314 925.645,855.748 925.645,856.177 925.645,856.602 925.645,857.022 925.645,857.438 925.645,857.848 925.645,858.255 925.645,858.656 925.645,859.053 925.645,859.445 925.645,859.833 925.645,860.216 925.645,860.594 925.645,860.968 925.645,861.337 925.645,861.702 925.645,862.061 925.645,862.417 925.645,862.767 925.645,863.113 925.645,863.454 925.645,863.791 925.645,864.123 925.645,864.450 925.645,864.773 925.645,865.091 925.645,865.404 925.645,865.713 925.645,866.017 925.645,866.316 925.645,866.611 925.645,866.901 925.645,867.187 925.645,867.468 925.645,867.744 925.645,868.016 925.645,868.282 925.645,868.545 925.645,868.802 925.645,869.055 925.645,869.304 925.645,869.548 925.645,869.787 925.645,870.021 925.645,870.251 925.645,870.476 925.645,870.697 925.645,870.912 925.645,871.124 925.645,871.330 925.645,871.532 925.645,871.730 925.645,871.922 925.645,872.110 925.645,872.294 925.645,872.472 925.645,872.646 925.645,872.816 925.645,872.981 925.645,873.141 925.645,873.296 925.645,873.447 925.645,873.593 925.645,873.735 925.645,873.872 925.645,874.004 925.645,874.132 925.645,874.255 925.645,874.373 925.645,874.487 925.645,874.596 925.645,874.701 925.645,874.801 925.645,874.896 925.645,874.986 925.645,875.072 925.645,875.153 925.645,875.230 925.645,875.302 925.645,875.369 925.645,875.432 925.645,875.490 925.645,875.543 925.645,875.592 925.645,875.636 925.645,875.676 925.645,875.710 925.645,875.741 925.645,875.766 925.645,875.787 925.645,875.803 925.645,875.815 925.645,875.822 925.645,875.824 "/>
<g>
</g>
</g>
<g id="ID000099" clip-path="url(#ID000001)" >
<g>
<circle cx="925.645" cy="853.074" r="3.000" fill="none" stroke="#0000ff" stroke-width="0.5pt" />
</g>
</g>
<g id="ID000100" clip-path="url(#ID000001)" >
<g>
<circle cx="925.645" cy="875.824" r="3.000" fill="none" stroke="#0000ff" stroke-width="0.5pt" />
</g>
</g>
<g id="ID000101" clip-path="url(#ID000001)" >
<g>
<circle cx="925.645" cy="875.824" r="1.000" fill="#000000" stroke="none" stroke-width="0.5pt" />
</g>
</g>
<g id="ID000102" clip-path="url(#ID000001)" >
      <polyline fill="none" stroke="#0000ff" stroke-width="0.5pt" stroke-dasharray="none" points="925.645,875.824 919.160,875.824 912.741,875.824 906.387,875.824 900.100,875.824 893.878,875.824 887.722,875.824 881.632,875.824 875.608,875.824 869.649,875.824 863.757,875.824 857.930,875.824 852.169,875.824 846.474,875.824 840.845,875.824 835.282,875.824 829.784,875.824 824.352,875.824 818.987,875.824 813.687,875.824 808.452,875.824 803.284,875.824 798.182,875.824 793.145,875.824 788.174,875.824 783.269,875.824 778.430,875.824 773.657,875.824 768.949,875.824 764.308,875.824 759.732,875.824 755.222,875.824 750.778,875.824 746.399,875.824 742.087,875.824 737.840,875.824 733.660,875.824 729.545,875.824 725.496,875.824 721.512,875.824 717.595,875.824 713.743,875.824 709.958,875.824 706.238,875.824 702.584,875.824 698.995,875.824 695.473,875.824 692.017,875.824 688.626,875.824 685.301,875.824 682.042,875.824 678.849,875.824 675.722,875.824 672.660,875.824 669.664,875.824 666.735,875.824 663.871,875.824 661.072,875.824 658.340,875.824 655.674,875.824 653.073,875.824 650.538,875.824 648.069,875.824 645.666,875.824 643.329,875.824 641.057,875.824 638.852,875.824 636.712,875.824 634.638,875.824 632.630,875.824 630.688,875.824 628.811,875.824 627.001,875.824 625.256,875.824 623.577,875.824 621.964,875.824 620.417,875.824 618.936,875.824 617.520,875.824 616.170,875.824 614.887,875.824 613.669,875.824 612.516,875.824 611.430,875.824 610.409,875.824 609.455,875.824 608.566,875.824 607.743,875.824 606.986,875.824 606.295,875.824 605.669,875.824 605.109,875.824 604.616,875.824 604.188,875.824 603.826,875.824 603.529,875.824 603.299,875.824 603.134,875.824 603.036,875.824 603.003,875.824 "/>
<g>
</g>
</g>
<g id="ID000103" clip-path="url(#ID000001)" >
<g>
<circle cx="925.645" cy="875.824" r="3.000" fill="none" stroke="#0000ff" stroke-width="0.5pt" />
</g>
</g>
<g id="ID000104" clip-path="url(#ID000001)" >
<g>
<circle cx="603.003" cy="875.824" r="3.000" fill="none" stroke="#0000ff" stroke-width="0.5pt" />
</g>
</g>
<g id="ID000105" clip-path="url(#ID000001)" >
<g>
<circle cx="603.003" cy="875.824" r="1.000" fill="#000000" stroke="none" stroke-width="0.5pt" />
</g>
</g>
<g id="ID000106" clip-path="url(#ID000001)" >
      <polyline fill="none" stroke="#0000ff" stroke-width="0.5pt" stroke-dasharray="none" points="603.003,875.824 603.003,875.367 603.003,874.914 603.003,874.466 603.003,874.023 603.003,873.584 603.003,873.150 603.003,872.721 603.003,872.296 603.003,871.876 603.003,871.460 603.003,871.049 603.003,870.643 603.003,870.242 603.003,869.845 603.003,869.452 603.003,869.065 603.003,868.682 603.003,868.303 603.003,867.930 603.003,867.561 603.003,867.196 603.003,866.836 603.003,866.481 603.003,866.131 603.003,865.785 603.003,865.444 603.003,865.107 603.003,864.775 603.003,864.448 603.003,864.125 603.003,863.807 603.003,863.494 603.003,863.185 603.003,862.881 603.003,862.581 603.003,862.287 603.003,861.996 603.003,861.711 603.003,861.430 603.003,861.154 603.003,860.882 603.003,860.615 603.003,860.353 603.003,860.095 603.003,859.842 603.003,859.594 603.003,859.350 603.003,859.111 603.003,858.877 603.003,858.647 603.003,858.422 603.003,858.201 603.003,857.985 603.003,857.774 603.003,857.568 603.003,857.366 603.003,857.168 603.003,856.976 603.003,856.788 603.003,856.604 603.003,856.425 603.003,856.251 603.003,856.082 603.003,855.917 603.003,855.757 603.003,855.601 603.003,855.451 603.003,855.304 603.003,855.163 603.003,855.026 603.003,854.893 603.003,854.766 603.003,854.643 603.003,854.524 603.003,854.411 603.003,854.302 603.003,854.197 603.003,854.097 603.003,854.002 603.003,853.912 603.003,853.826 603.003,853.744 603.003,853.668 603.003,853.596 603.003,853.529 603.003,853.466 603.003,853.408 603.003,853.354 603.003,853.306 603.003,853.262 603.003,853.222 603.003,853.187 603.003,853.157 603.003,853.132 603.003,853.111 603.003,853.094 603.003,853.083 603.003,853.076 603.003,853.074 "/>
<g>
</g>
</g>
<g id="ID000107" clip-path="url(#ID000001)" >
<g>
<circle cx="603.003" cy="875.824" r="3.000" fill="none" stroke="#0000ff" stroke-width="0.5pt" />
</g>
</g>
<g id="ID000108" clip-path="url(#ID000001)" >
<g>
<circle cx="603.003" cy="853.074" r="3.000" fill="none" stroke="#0000ff" stroke-width="0.5pt" />
</g>
</g>
<g id="ID000109" clip-path="url(#ID000001)" >
<g>
<circle cx="603.003" cy="853.074" r="1.000" fill="#000000" stroke="none" stroke-width="0.5pt" />
</g>
</g>
<g id="ID000110" clip-path="url(#ID000001)" >
      <polyline fill="none" stroke="#0000ff" stroke-width="0.5pt" stroke-dasharray="none" points="603.003,853.074 604.325,853.032 605.637,852.987 606.940,852.937 608.234,852.883 609.518,852.824 610.792,852.762 612.057,852.695 613.312,852.624 614.558,852.549 615.794,852.470 617.021,852.386 618.238,852.298 619.446,852.206 620.644,852.110 621.832,852.010 623.011,851.905 624.180,851.796 625.340,851.683 626.491,851.566 627.631,851.444 628.763,851.319 629.884,851.189 630.996,851.055 632.099,850.916 633.192,850.774 634.275,850.627 635.349,850.476 636.414,850.321 637.468,850.161 638.514,849.998 639.549,849.830 640.575,849.658 641.592,849.481 642.599,849.301 643.597,849.116 644.585,848.927 645.563,848.734 646.532,848.537 647.491,848.335 648.441,848.129 649.381,847.919 650.312,847.705 651.233,847.487 652.145,847.264 653.047,847.037 653.939,846.806 654.822,846.571 655.696,846.331 656.560,846.087 657.414,845.840 658.259,845.587 659.094,845.331 659.920,845.070 660.736,844.806 661.542,844.537 662.339,844.263 663.127,843.986 663.905,843.704 664.673,843.418 665.432,843.128 666.181,842.834 666.921,842.535 667.651,842.233 668.372,841.926 669.083,841.615 669.785,841.299 670.477,840.980 671.159,840.656 671.832,840.328 672.495,839.995 673.149,839.659 673.794,839.318 674.428,838.973 675.053,838.624 675.669,838.271 676.275,837.913 676.872,837.552 677.459,837.186 678.036,836.816 678.604,836.441 679.162,836.063 679.711,835.680 680.251,835.293 680.780,834.901 681.300,834.506 681.811,834.106 682.312,833.702 682.804,833.294 683.286,832.882 683.758,832.465 684.221,832.045 684.674,831.620 685.118,831.191 685.552,830.757 685.977,830.319 686.392,829.878 686.798,829.432 687.194,828.981 687.580,828.527 "/>
<g>
</g>
</g>
<g id="ID000111" clip-path="url(#ID000001)" >
<g>
<circle cx="603.003" cy="853.074" r="3.000" fill="none" stroke="#0000ff" stroke-width="0.5pt" />
</g>
</g>
<g id="ID000112" clip-path="url(#ID000001)" >
<g>
<circle cx="687.580" cy="828.527" r="3.000" fill="none" stroke="#0000ff" stroke-width="0.5pt" />
</g>
</g>
<g id="ID000113" clip-path="url(#ID000001)" >
<g>
<circle cx="668.684" cy="851.128" r="1.000" fill="#000000" stroke="none" stroke-width="0.5pt" />
</g>
</g>
<g id="ID000114" clip-path="url(#ID000001)" >
      <polyline fill="none" stroke="#0000ff" stroke-width="0.5pt" stroke-dasharray="none" points="687.580,828.527 687.960,828.065 688.335,827.593 688.707,827.110 689.074,826.617 689.437,826.113 689.796,825.599 690.151,825.075 690.502,824.540 690.849,823.995 691.191,823.439 691.529,822.872 691.864,822.296 692.194,821.709 692.520,821.111 692.842,820.503 693.159,819.884 693.473,819.256 693.782,818.616 694.088,817.966 694.389,817.306 694.686,816.635 694.979,815.954 695.268,815.263 695.553,814.560 695.833,813.848 696.109,813.125 696.382,812.392 696.650,811.648 696.914,810.894 697.174,810.129 697.430,809.354 697.681,808.568 697.929,807.772 698.172,806.965 698.411,806.148 698.647,805.321 698.878,804.483 699.104,803.635 699.327,802.776 699.546,801.907 699.760,801.027 699.971,800.137 700.177,799.237 700.379,798.326 700.577,797.404 700.771,796.472 700.960,795.530 701.146,794.577 701.327,793.614 701.505,792.641 701.678,791.656 701.847,790.662 702.012,789.657 702.173,788.642 702.329,787.616 702.482,786.579 702.630,785.533 702.775,784.475 702.915,783.408 703.051,782.330 703.183,781.241 703.310,780.142 703.434,779.033 703.554,777.913 703.669,776.782 703.780,775.642 703.887,774.490 703.990,773.329 704.089,772.157 704.184,770.974 704.274,769.781 704.361,768.578 704.443,767.364 704.521,766.139 704.595,764.905 704.665,763.659 704.731,762.404 704.793,761.138 704.850,759.861 704.904,758.574 704.953,757.277 704.998,755.969 705.039,754.650 705.076,753.321 705.109,751.982 705.138,750.633 705.162,749.272 705.182,747.902 705.199,746.521 705.211,745.129 705.219,743.727 705.223,742.315 705.222,740.892 705.218,739.459 705.210,738.015 705.197,736.561 705.180,735.097 705.159,733.622 705.134,732.136 "/>
<g>
</g>
</g>
<g id="ID000115" clip-path="url(#ID000001)" >
<g>
<circle cx="687.580" cy="828.527" r="3.000" fill="none" stroke="#0000ff" stroke-width="0.5pt" />
</g>
</g>
<g id="ID000116" clip-path="url(#ID000001)" >
<g>
<circle cx="705.134" cy="732.136" r="3.000" fill="none" stroke="#0000ff" stroke-width="0.5pt" />
</g>
</g>
<g id="ID000117" clip-path="url(#ID000001)" >
<g>
<circle cx="706.476" cy="805.926" r="1.000" fill="#000000" stroke="none" stroke-width="0.5pt" />
</g>
</g>
<g id="ID000118" clip-path="url(#ID000001)" >
      <polyline fill="none" stroke="#0000ff" stroke-width="0.5pt" stroke-dasharray="none" points="705.134,732.136 705.134,727.443 705.134,722.797 705.134,718.199 705.134,713.649 705.134,709.146 705.134,704.691 705.134,700.284 705.134,695.924 705.134,691.612 705.134,687.348 705.134,683.131 705.134,678.962 705.134,674.841 705.134,670.767 705.134,666.741 705.134,662.762 705.134,658.831 705.134,654.948 705.134,651.113 705.134,647.325 705.134,643.584 705.134,639.892 705.134,636.247 705.134,632.649 705.134,629.100 705.134,625.598 705.134,622.143 705.134,618.737 705.134,615.378 705.134,612.066 705.134,608.802 705.134,605.586 705.134,602.418 705.134,599.297 705.134,596.223 705.134,593.198 705.134,590.220 705.134,587.290 705.134,584.407 705.134,581.572 705.134,578.785 705.134,576.045 705.134,573.353 705.134,570.709 705.134,568.112 705.134,565.563 705.134,563.061 705.134,560.607 705.134,558.201 705.134,555.843 705.134,553.532 705.134,551.269 705.134,549.053 705.134,546.885 705.134,544.765 705.134,542.692 705.134,540.667 705.134,538.690 705.134,536.760 705.134,534.878 705.134,533.044 705.134,531.257 705.134,529.518 705.134,527.826 705.134,526.183 705.134,524.586 705.134,523.038 705.134,521.537 705.134,520.084 705.134,518.678 705.134,517.320 705.134,516.010 705.134,514.747 705.134,513.532 705.134,512.365 705.134,511.245 705.134,510.173 705.134,509.149 705.134,508.172 705.134,507.243 705.134,506.362 705.134,505.528 705.134,504.742 705.134,504.003 705.134,503.312 705.134,502.669 705.134,502.073 705.134,501.525 705.134,501.025 705.134,500.572 705.134,500.167 705.134,499.810 705.134,499.500 705.134,499.238 705.134,499.024 705.134,498.857 705.134,498.738 705.134,498.667 705.134,498.643 "/>
<g>
</g>
</g>
<g id="ID000119" clip-path="url(#ID000001)" >
<g>
<circle cx="705.134" cy="732.136" r="3.000" fill="none" stroke="#0000ff" stroke-width="0.5pt" />
</g>
</g>
<g id="ID000120" clip-path="url(#ID000001)" >
<g>
<circle cx="705.134" cy="498.643" r="3.000" fill="none" stroke="#0000ff" stroke-width="0.5pt" />
</g>
</g>
<g id="ID000121" clip-path="url(#ID000001)" >
<g>
<circle cx="705.134" cy="498.643" r="1.000" fill="#000000" stroke="none" stroke-width="0.5pt" />
</g>
</g>
<g id="ID000122" clip-path="url(#ID000001)" >
      <polyline fill="none" stroke="#0000ff" stroke-width="0.5pt" stroke-dasharray="none" points="705.134,498.643 698.066,498.643 691.069,498.643 684.144,498.643 677.291,498.643 670.510,498.643 663.801,498.643 657.163,498.643 650.597,498.643 644.103,498.643 637.680,498.643 631.330,498.643 625.051,498.643 618.843,498.643 612.708,498.643 606.644,498.643 600.652,498.643 594.732,498.643 588.884,498.643 583.107,498.643 577.402,498.643 571.769,498.643 566.208,498.643 560.718,498.643 555.300,498.643 549.954,498.643 544.680,498.643 539.477,498.643 534.347,498.643 529.288,498.643 524.300,498.643 519.385,498.643 514.541,498.643 509.769,498.643 505.069,498.643 500.440,498.643 495.883,498.643 491.399,498.643 486.985,498.643 482.644,498.643 478.374,498.643 474.176,498.643 470.050,498.643 465.996,498.643 462.013,498.643 458.102,498.643 454.263,498.643 450.496,498.643 446.800,498.643 443.176,498.643 439.624,498.643 436.144,498.643 432.735,498.643 429.398,498.643 426.133,498.643 422.940,498.643 419.818,498.643 416.769,498.643 413.791,498.643 410.884,498.643 408.050,498.643 405.287,498.643 402.596,498.643 399.977,498.643 397.429,498.643 394.954,498.643 392.550,498.643 390.218,498.643 387.957,498.643 385.769,498.643 383.652,498.643 381.607,498.643 379.633,498.643 377.732,498.643 375.902,498.643 374.144,498.643 372.457,498.643 370.843,498.643 369.300,498.643 367.829,498.643 366.429,498.643 365.102,498.643 363.846,498.643 362.662,498.643 361.550,498.643 360.509,498.643 359.540,498.643 358.643,498.643 357.818,498.643 357.065,498.643 356.383,498.643 355.773,498.643 355.235,498.643 354.768,498.643 354.374,498.643 354.051,498.643 353.800,498.643 353.620,498.643 353.513,498.643 353.477,498.643 "/>
<g>
</g>
</g>
<g id="ID000123" clip-path="url(#ID000001)" >
<g>
<circle cx="705.134" cy="498.643" r="3.000" fill="none" stroke="#0000ff" stroke-width="0.5pt" />
</g>
</g>
<g id="ID000124" clip-path="url(#ID000001)" >
<g>
<circle cx="353.477" cy="498.643" r="3.000" fill="none" stroke="#0000ff" stroke-width="0.5pt" />
</g>
</g>
<g id="ID000125" clip-path="url(#ID000001)" >
<g>
<circle cx="353.477" cy="498.643" r="1.000" fill="#000000" stroke="none" stroke-width="0.5pt" />
</g>
</g>
<g id="ID000126" clip-path="url(#ID000001)" >
      <polyline fill="none" stroke="#0000ff" stroke-width="0.5pt" stroke-dasharray="none" points="353.477,498.643 353.477,503.601 353.477,508.508 353.477,513.366 353.477,518.173 353.477,522.929 353.477,527.636 353.477,532.291 353.477,536.897 353.477,541.452 353.477,545.957 353.477,550.412 353.477,554.816 353.477,559.170 353.477,563.474 353.477,567.727 353.477,571.930 353.477,576.083 353.477,580.185 353.477,584.237 353.477,588.238 353.477,592.190 353.477,596.091 353.477,599.941 353.477,603.741 353.477,607.491 353.477,611.191 353.477,614.840 353.477,618.439 353.477,621.988 353.477,625.486 353.477,628.934 353.477,632.331 353.477,635.679 353.477,638.976 353.477,642.222 353.477,645.418 353.477,648.564 353.477,651.660 353.477,654.705 353.477,657.700 353.477,660.645 353.477,663.539 353.477,666.383 353.477,669.176 353.477,671.920 353.477,674.613 353.477,677.255 353.477,679.847 353.477,682.389 353.477,684.881 353.477,687.322 353.477,689.713 353.477,692.053 353.477,694.344 353.477,696.584 353.477,698.773 353.477,700.912 353.477,703.001 353.477,705.040 353.477,707.028 353.477,708.966 353.477,710.853 353.477,712.691 353.477,714.478 353.477,716.214 353.477,717.900 353.477,719.536 353.477,721.122 353.477,722.657 353.477,724.142 353.477,725.576 353.477,726.961 353.477,728.294 353.477,729.578 353.477,730.811 353.477,731.994 353.477,733.127 353.477,734.209 353.477,735.241 353.477,736.222 353.477,737.153 353.477,738.034 353.477,738.865 353.477,739.645 353.477,740.375 353.477,741.054 353.477,741.683 353.477,742.262 353.477,742.791 353.477,743.269 353.477,743.697 353.477,744.074 353.477,744.401 353.477,744.678 353.477,744.905 353.477,745.081 353.477,745.207 353.477,745.282 353.477,745.307 "/>
<g>
</g>
</g>
<g id="ID000127" clip-path="url(#ID000001)" >
<g>
<circle cx="353.477" cy="498.643" r="3.000" fill="none" stroke="#0000ff" stroke-width="0.5pt" />
</g>
</g>
<g id="ID000128" clip-path="url(#ID000001)" >
<g>
<circle cx="353.477" cy="745.307" r="3.000" fill="none" stroke="#0000ff" stroke-width="0.5pt" />
</g>
</g>
<g id="ID000129" clip-path="url(#ID000001)" >
<g>
<circle cx="353.477" cy="745.307" r="1.000" fill="#000000" stroke="none" stroke-width="0.5pt" />
</g>
</g>
<g id="ID000130" clip-path="url(#ID000001)" >
      <polyline fill="none" stroke="#0000ff" stroke-width="0.5pt" stroke-dasharray="none" points="353.477,745.307 353.458,746.569 353.444,747.821 353.434,749.065 353.429,750.301 353.428,751.528 353.430,752.747 353.438,753.957 353.449,755.158 353.465,756.351 353.485,757.536 353.509,758.712 353.538,759.879 353.570,761.038 353.607,762.188 353.649,763.330 353.694,764.464 353.744,765.589 353.798,766.705 353.856,767.813 353.919,768.912 353.986,770.003 354.057,771.085 354.133,772.159 354.212,773.224 354.296,774.280 354.384,775.329 354.477,776.368 354.573,777.399 354.674,778.422 354.780,779.436 354.889,780.441 355.003,781.438 355.121,782.427 355.243,783.407 355.370,784.378 355.501,785.341 355.636,786.296 355.775,787.242 355.919,788.179 356.067,789.108 356.219,790.028 356.375,790.940 356.536,791.843 356.701,792.738 356.870,793.624 357.043,794.502 357.221,795.371 357.403,796.232 357.589,797.084 357.780,797.927 357.974,798.763 358.174,799.589 358.377,800.407 358.584,801.217 358.796,802.018 359.012,802.810 359.233,803.594 359.457,804.370 359.686,805.137 359.919,805.895 360.157,806.645 360.398,807.386 360.644,808.119 360.894,808.843 361.149,809.559 361.407,810.266 361.670,810.965 361.938,811.655 362.209,812.337 362.485,813.010 362.765,813.675 363.049,814.331 363.338,814.979 363.631,815.618 363.928,816.249 364.229,816.871 364.535,817.484 364.844,818.089 365.159,818.686 365.477,819.274 365.800,819.853 366.127,820.424 366.458,820.986 366.793,821.540 367.133,822.086 367.477,822.623 367.825,823.151 368.178,823.671 368.534,824.182 368.895,824.685 369.261,825.179 369.630,825.665 370.004,826.142 370.382,826.611 370.764,827.071 371.151,827.522 371.542,827.966 371.937,828.400 372.336,828.826 "/>
<g>
</g>
</g>
<g id="ID000131" clip-path="url(#ID000001)" >
<g>
<circle cx="353.477" cy="745.307" r="3.000" fill="none" stroke="#0000ff" stroke-width="0.5pt" />
</g>
</g>
<g id="ID000132" clip-path="url(#ID000001)" >
<g>
<circle cx="372.336" cy="828.826" r="3.000" fill="none" stroke="#0000ff" stroke-width="0.5pt" />
</g>
</g>
<g id="ID000133" clip-path="url(#ID000001)" >
<g>
<circle cx="352.461" cy="807.947" r="1.000" fill="#000000" stroke="none" stroke-width="0.5pt" />
</g>
</g>
<g id="ID000134" clip-path="url(#ID000001)" >
      <polyline fill="none" stroke="#0000ff" stroke-width="0.5pt" stroke-dasharray="none" points="372.336,828.826 372.742,829.246 373.157,829.663 373.581,830.076 374.013,830.485 374.455,830.891 374.905,831.293 375.365,831.691 375.833,832.086 376.310,832.478 376.796,832.866 377.290,833.250 377.794,833.631 378.306,834.008 378.828,834.381 379.358,834.751 379.897,835.118 380.445,835.481 381.002,835.840 381.568,836.196 382.143,836.548 382.726,836.896 383.319,837.241 383.920,837.583 384.530,837.921 385.150,838.255 385.778,838.585 386.414,838.913 387.060,839.236 387.715,839.556 388.378,839.872 389.051,840.185 389.732,840.495 390.422,840.800 391.121,841.102 391.829,841.401 392.546,841.696 393.272,841.987 394.006,842.275 394.750,842.559 395.502,842.840 396.263,843.117 397.033,843.390 397.812,843.660 398.600,843.927 399.397,844.190 400.202,844.449 401.017,844.704 401.840,844.956 402.672,845.205 403.514,845.450 404.364,845.691 405.222,845.929 406.090,846.163 406.967,846.394 407.852,846.621 408.747,846.844 409.650,847.064 410.562,847.281 411.483,847.493 412.413,847.703 413.352,847.908 414.300,848.110 415.256,848.309 416.222,848.504 417.196,848.695 418.179,848.883 419.172,849.067 420.173,849.247 421.182,849.424 422.201,849.598 423.229,849.768 424.265,849.934 425.311,850.097 426.365,850.256 427.428,850.412 428.500,850.564 429.581,850.712 430.671,850.857 431.770,850.998 432.877,851.136 433.994,851.270 435.119,851.401 436.253,851.528 437.396,851.651 438.548,851.771 439.709,851.887 440.879,852.000 442.057,852.109 443.245,852.215 444.441,852.317 445.647,852.415 446.861,852.510 448.084,852.601 449.316,852.689 450.556,852.773 451.806,852.853 453.065,852.930 454.332,853.004 455.608,853.074 "/>
<g>
</g>
</g>
<g id="ID000135" clip-path="url(#ID000001)" >
<g>
<circle cx="372.336" cy="828.826" r="3.000" fill="none" stroke="#0000ff" stroke-width="0.5pt" />
</g>
</g>
<g id="ID000136" clip-path="url(#ID000001)" >
<g>
<circle cx="455.608" cy="853.074" r="3.000" fill="none" stroke="#0000ff" stroke-width="0.5pt" />
</g>
</g>
<g id="ID000137" clip-path="url(#ID000001)" >
<g>
<circle cx="392.211" cy="849.706" r="1.000" fill="#000000" stroke="none" stroke-width="0.5pt" />
</g>
</g>
<g id="ID000138" clip-path="url(#ID000001)" >
      <polyline fill="none" stroke="#0000ff" stroke-width="0.5pt" stroke-dasharray="none" points="455.608,853.074 455.608,853.531 455.608,853.984 455.608,854.432 455.608,854.875 455.608,855.314 455.608,855.748 455.608,856.177 455.608,856.602 455.608,857.022 455.608,857.438 455.608,857.848 455.608,858.255 455.608,858.656 455.608,859.053 455.608,859.445 455.608,859.833 455.608,860.216 455.608,860.594 455.608,860.968 455.608,861.337 455.608,861.702 455.608,862.061 455.608,862.417 455.608,862.767 455.608,863.113 455.608,863.454 455.608,863.791 455.608,864.123 455.608,864.450 455.608,864.773 455.608,865.091 455.608,865.404 455.608,865.713 455.608,866.017 455.608,866.316 455.608,866.611 455.608,866.901 455.608,867.187 455.608,867.468 455.608,867.744 455.608,868.016 455.608,868.282 455.608,868.545 455.608,868.802 455.608,869.055 455.608,869.304 455.608,869.548 455.608,869.787 455.608,870.021 455.608,870.251 455.608,870.476 455.608,870.697 455.608,870.912 455.608,871.124 455.608,871.330 455.608,871.532 455.608,871.730 455.608,871.922 455.608,872.110 455.608,872.294 455.608,872.472 455.608,872.646 455.608,872.816 455.608,872.981 455.608,873.141 455.608,873.296 455.608,873.447 455.608,873.593 455.608,873.735 455.608,873.872 455.608,874.004 455.608,874.132 455.608,874.255 455.608,874.373 455.608,874.487 455.608,874.596 455.608,874.701 455.608,874.801 455.608,874.896 455.608,874.986 455.608,875.072 455.608,875.153 455.608,875.230 455.608,875.302 455.608,875.369 455.608,875.432 455.608,875.490 455.608,875.543 455.608,875.592 455.608,875.636 455.608,875.676 455.608,875.710 455.608,875.741 455.608,875.766 455.608,875.787 455.608,875.803 455.608,875.815 455.608,875.822 455.608,875.824 "/>
<g>
</g>
</g>
<g id="ID000139" clip-path="url(#ID000001)" >
<g>
<circle cx="455.608" cy="853.074" r="3.000" fill="none" stroke="#0000ff" stroke-width="0.5pt" />
</g>
</g>
<g id="ID000140" clip-path="url(#ID000001)" >
<g>
<circle cx="455.608" cy="875.824" r="3.000" fill="none" stroke="#0000ff" stroke-width="0.5pt" />
</g>
</g>
<g id="ID000141" clip-path="url(#ID000001)" >
<g>
<circle cx="455.608" cy="875.824" r="1.000" fill="#000000" stroke="none" stroke-width="0.5pt" />
</g>
</g>
<g id="ID000142" clip-path="url(#ID000001)" >
      <polyline fill="none" stroke="#0000ff" stroke-width="0.5pt" stroke-dasharray="none" points="455.608,875.824 449.123,875.824 442.704,875.824 436.350,875.824 430.063,875.824 423.841,875.824 417.685,875.824 411.595,875.824 405.571,875.824 399.612,875.824 393.720,875.824 387.893,875.824 382.132,875.824 376.437,875.824 370.808,875.824 365.245,875.824 359.747,875.824 354.315,875.824 348.950,875.824 343.650,875.824 338.415,875.824 333.247,875.824 328.145,875.824 323.108,875.824 318.137,875.824 313.232,875.824 308.393,875.824 303.620,875.824 298.912,875.824 294.271,875.824 289.695,875.824 285.185,875.824 280.741,875.824 276.362,875.824 272.050,875.824 267.803,875.824 263.623,875.824 259.508,875.824 255.459,875.824 251.475,875.824 247.558,875.824 243.706,875.824 239.921,875.824 236.201,875.824 232.547,875.824 228.958,875.824 225.436,875.824 221.980,875.824 218.589,875.824 215.264,875.824 212.005,875.824 208.812,875.824 205.684,875.824 202.623,875.824 199.627,875.824 196.698,875.824 193.834,875.824 191.035,875.824 188.303,875.824 185.637,875.824 183.036,875.824 180.501,875.824 178.032,875.824 175.629,875.824 173.292,875.824 171.020,875.824 168.815,875.824 166.675,875.824 164.601,875.824 162.593,875.824 160.651,875.824 158.774,875.824 156.964,875.824 155.219,875.824 153.540,875.824 151.927,875.824 150.380,875.824 148.899,875.824 147.483,875.824 146.133,875.824 144.850,875.824 143.631,875.824 142.479,875.824 141.393,875.824 140.372,875.824 139.418,875.824 138.529,875.824 137.706,875.824 136.949,875.824 136.258,875.824 135.632,875.824 135.072,875.824 134.579,875.824 134.151,875.824 133.789,875.824 133.492,875.824 133.262,875.824 133.097,875.824 132.999,875.824 132.966,875.824 "/>
<g>
</g>
</g>
<g id="ID000143" clip-path="url(#ID000001)" >
<g>
<circle cx="455.608" cy="875.824" r="3.000" fill="none" stroke="#0000ff" stroke-width="0.5pt" />
</g>
</g>
<g id="ID000144" clip-path="url(#ID000001)" >
<g>
<circle cx="132.966" cy="875.824" r="3.000" fill="none" stroke="#0000ff" stroke-width="0.5pt" />
</g>
</g>
<g id="ID000145" clip-path="url(#ID000001)" >
<g>
<circle cx="132.966" cy="875.824" r="1.000" fill="#000000" stroke="none" stroke-width="0.5pt" />
</g>
</g>
<g id="ID000146" clip-path="url(#ID000001)" >
<rect x="157.737" y="107.916" width="99.085" height="99.085" rx="49.542" ry="49.542" fill="none" stroke="#000000" stroke-width="0.5pt" stroke-dasharray="none" />
</g>
<g id="ID000147" clip-path="url(#ID000001)" >
      <polyline fill="none" stroke="#ff0000" stroke-width="0.5pt" stroke-dasharray="none" points="235.097,213.661 235.120,212.369 235.139,211.085 235.153,209.810 235.163,208.544 235.170,207.288 235.171,206.040 235.169,204.801 235.163,203.571 235.152,202.350 235.138,201.138 235.119,199.936 235.096,198.742 235.068,197.557 235.037,196.381 235.001,195.214 234.961,194.056 234.917,192.907 234.869,191.767 234.817,190.636 234.761,189.514 234.700,188.400 234.635,187.296 234.566,186.201 234.493,185.115 234.415,184.038 234.334,182.970 234.248,181.910 234.158,180.860 234.064,179.819 233.966,178.787 233.864,177.763 233.757,176.749 233.646,175.744 233.531,174.747 233.412,173.760 233.289,172.781 233.162,171.812 233.030,170.852 232.894,169.900 232.754,168.958 232.610,168.024 232.462,167.100 232.309,166.184 232.153,165.277 231.992,164.380 231.827,163.491 231.658,162.612 231.484,161.741 231.307,160.879 231.125,160.027 230.939,159.183 230.749,158.348 230.555,157.522 230.356,156.706 230.154,155.898 229.947,155.099 229.736,154.309 229.521,153.528 229.302,152.756 229.078,151.993 228.851,151.240 228.619,150.495 228.383,149.759 228.143,149.032 227.899,148.314 227.650,147.605 227.397,146.905 227.141,146.214 226.880,145.531 226.614,144.858 226.345,144.194 226.071,143.539 225.794,142.893 225.512,142.256 225.226,141.628 224.936,141.008 224.641,140.398 224.343,139.797 224.040,139.205 223.733,138.621 223.422,138.047 223.106,137.482 222.787,136.925 222.463,136.378 222.136,135.839 221.804,135.310 221.467,134.789 221.127,134.278 220.783,133.776 220.434,133.282 220.081,132.797 219.724,132.322 219.363,131.855 218.998,131.398 218.628,130.949 218.254,130.510 217.876,130.079 217.494,129.657 217.108,129.244 "/>
<g>
</g>
</g>
<g id="ID000148" clip-path="url(#ID000001)" >
<g>
<circle cx="235.097" cy="213.661" r="3.000" fill="none" stroke="#ff0000" stroke-width="0.5pt" />
</g>
</g>
<g id="ID000149" clip-path="url(#ID000001)" >
<g>
<circle cx="217.108" cy="129.244" r="3.000" fill="none" stroke="#ff0000" stroke-width="0.5pt" />
</g>
</g>
<g id="ID000150" clip-path="url(#ID000001)" >
<g>
<circle cx="236.330" cy="149.451" r="1.000" fill="#ff00ff" stroke="none" stroke-width="0.5pt" />
</g>
</g>
<g id="ID000151" clip-path="url(#ID000001)" >
      <polyline fill="none" stroke="#ff0000" stroke-width="0.5pt" stroke-dasharray="none" points="217.108,129.244 216.715,128.838 216.313,128.435 215.901,128.036 215.480,127.640 215.050,127.247 214.610,126.858 214.161,126.472 213.703,126.090 213.235,125.712 212.759,125.337 212.272,124.965 211.777,124.597 211.272,124.232 210.758,123.871 210.234,123.513 209.701,123.159 209.159,122.808 208.607,122.461 208.047,122.117 207.476,121.777 206.897,121.440 206.308,121.107 205.710,120.777 205.103,120.450 204.486,120.127 203.860,119.808 203.224,119.492 202.579,119.180 201.925,118.871 201.262,118.565 200.589,118.263 199.907,117.965 199.216,117.670 198.515,117.378 197.805,117.090 197.086,116.805 196.357,116.524 195.619,116.247 194.871,115.972 194.115,115.702 193.349,115.435 192.574,115.171 191.789,114.911 190.995,114.654 190.192,114.401 189.379,114.151 188.557,113.905 187.726,113.662 186.885,113.422 186.035,113.187 185.176,112.954 184.307,112.725 183.429,112.500 182.542,112.278 181.646,112.060 180.740,111.845 179.825,111.633 178.900,111.425 177.966,111.221 177.023,111.020 176.071,110.822 175.109,110.628 174.138,110.437 173.157,110.250 172.167,110.067 171.168,109.886 170.160,109.710 169.142,109.537 168.115,109.367 167.078,109.201 166.033,109.038 164.978,108.879 163.913,108.723 162.840,108.571 161.756,108.422 160.664,108.277 159.562,108.135 158.451,107.996 157.331,107.862 156.201,107.730 155.062,107.602 153.914,107.478 152.756,107.357 151.589,107.239 150.413,107.125 149.227,107.015 148.032,106.908 146.828,106.804 145.615,106.704 144.392,106.608 143.159,106.515 141.918,106.425 140.667,106.339 139.407,106.256 138.137,106.177 136.858,106.101 135.570,106.029 134.272,105.960 132.966,105.895 "/>
<g>
</g>
</g>
<g id="ID000152" clip-path="url(#ID000001)" >
<g>
<circle cx="217.108" cy="129.244" r="3.000" fill="none" stroke="#ff0000" stroke-width="0.5pt" />
</g>
</g>
<g id="ID000153" clip-path="url(#ID000001)" >
<g>
<circle cx="132.966" cy="105.895" r="3.000" fill="none" stroke="#ff0000" stroke-width="0.5pt" />
</g>
</g>
<g id="ID000154" clip-path="url(#ID000001)" >
<g>
<circle cx="197.886" cy="109.038" r="1.000" fill="#ff00ff" stroke="none" stroke-width="0.5pt" />
</g>
</g>
    </g>
  </g>
  </g>
</svg>
